<svg width="300" height="300" viewBox="0 0 300 300" fill="none" xmlns="http://www.w3.org/2000/svg">
<g clip-path="url(#clip0_2_2)">
<path d="M300 0H0V300H300V0Z" fill="white"/>
<mask id="mask0_2_2" style="mask-type:luminance" maskUnits="userSpaceOnUse" x="0" y="0" width="300" height="300">
<path d="M12 108L12 96H6C4.4087 96 2.88258 96.6321 1.75736 97.7574C0.632141 98.8826 0 100.409 0 102C0 103.591 0.632141 105.117 1.75736 106.243C2.88258 107.368 4.4087 108 6 108" fill="white"/>
<path d="M0 132H12V126C12 124.409 11.3679 122.883 10.2426 121.757C9.11743 120.632 7.5913 120 6 120C4.4087 120 2.88258 120.632 1.75736 121.757C0.632144 122.883 0 124.409 0 126" fill="white"/>
<path d="M12 132H0V138C0 139.591 0.632136 141.117 1.75735 142.243C2.88257 143.368 4.4087 144 6 144C7.5913 144 9.11743 143.368 10.2426 142.243C11.3679 141.117 12 139.591 12 138" fill="white"/>
<path d="M0 168H12V162C12 160.409 11.3679 158.883 10.2426 157.757C9.11743 156.632 7.5913 156 6 156C4.4087 156 2.88257 156.632 1.75735 157.757C0.632136 158.883 0 160.409 0 162" fill="white"/>
<path d="M12 168H0V180H12V168Z" fill="white"/>
<path d="M12 180H0V192H12V180Z" fill="white"/>
<path d="M12 204L12 192H0L0 198C0 199.591 0.632141 201.117 1.75736 202.243C2.88258 203.368 4.4087 204 6 204" fill="white"/>
<path d="M24 96H12V108H24V96Z" fill="white"/>
<path d="M24 108H12V114C12 115.591 12.6321 117.117 13.7574 118.243C14.8826 119.368 16.4087 120 18 120C19.5913 120 21.1174 119.368 22.2426 118.243C23.3679 117.117 24 115.591 24 114" fill="white"/>
<path d="M12 168V180H24V174C24 172.409 23.3679 170.883 22.2426 169.757C21.1174 168.632 19.5913 168 18 168" fill="white"/>
<path d="M24 180H12V192H24V180Z" fill="white"/>
<path d="M24 192H12V204H18C19.5913 204 21.1174 203.368 22.2426 202.243C23.3679 201.117 24 199.591 24 198" fill="white"/>
<path d="M36 96H24V108H36V96Z" fill="white"/>
<path d="M24 132H36V126C36 124.409 35.3679 122.883 34.2426 121.757C33.1174 120.632 31.5913 120 30 120C28.4087 120 26.8826 120.632 25.7574 121.757C24.6321 122.883 24 124.409 24 126" fill="white"/>
<path d="M36 132H24V138C24 139.591 24.6321 141.117 25.7574 142.243C26.8826 143.368 28.4087 144 30 144C31.5913 144 33.1174 143.368 34.2426 142.243C35.3679 141.117 36 139.591 36 138" fill="white"/>
<path d="M48 96H36V108H48V96Z" fill="white"/>
<path d="M48 120V108H36V114C36 115.591 36.6321 117.117 37.7574 118.243C38.8826 119.368 40.4087 120 42 120" fill="white"/>
<path d="M48 168V156H42C40.4087 156 38.8826 156.632 37.7574 157.757C36.6321 158.883 36 160.409 36 162C36 163.591 36.6321 165.117 37.7574 166.243C38.8826 167.368 40.4087 168 42 168" fill="white"/>
<path d="M48 96V108H60V102C60 100.409 59.3679 98.8826 58.2426 97.7574C57.1174 96.6321 55.5913 96 54 96" fill="white"/>
<path d="M60 108H48V120H60V108Z" fill="white"/>
<path d="M48 156V168H60V162C60 160.409 59.3679 158.883 58.2426 157.757C57.1174 156.632 55.5913 156 54 156" fill="white"/>
<path d="M60 168H48V180H60V168Z" fill="white"/>
<path d="M60 192V180H48V186C48 187.591 48.6321 189.117 49.7574 190.243C50.8826 191.368 52.4087 192 54 192" fill="white"/>
<path d="M60 108V120H72V114C72 112.409 71.3679 110.883 70.2426 109.757C69.1174 108.632 67.5913 108 66 108" fill="white"/>
<path d="M72 120H60V132H72V120Z" fill="white"/>
<path d="M72 132H60V138C60 139.591 60.6321 141.117 61.7574 142.243C62.8826 143.368 64.4087 144 66 144C67.5913 144 69.1174 143.368 70.2426 142.243C71.3679 141.117 72 139.591 72 138" fill="white"/>
<path d="M72 168H60V180H72V168Z" fill="white"/>
<path d="M72 180H60V192H72V180Z" fill="white"/>
<path d="M72 204V192H60V198C60 199.591 60.6321 201.117 61.7574 202.243C62.8826 203.368 64.4087 204 66 204" fill="white"/>
<path d="M84 108V96H78C76.4087 96 74.8826 96.6321 73.7574 97.7574C72.6321 98.8826 72 100.409 72 102C72 103.591 72.6321 105.117 73.7574 106.243C74.8826 107.368 76.4087 108 78 108" fill="white"/>
<path d="M72 120V132H78C79.5913 132 81.1174 131.368 82.2426 130.243C83.3679 129.117 84 127.591 84 126C84 124.409 83.3679 122.883 82.2426 121.757C81.1174 120.632 79.5913 120 78 120" fill="white"/>
<path d="M78 156C81.3137 156 84 153.314 84 150C84 146.686 81.3137 144 78 144C74.6863 144 72 146.686 72 150C72 153.314 74.6863 156 78 156Z" fill="white"/>
<path d="M72 168V180H78C79.5913 180 81.1174 179.368 82.2426 178.243C83.3679 177.117 84 175.591 84 174C84 172.409 83.3679 170.883 82.2426 169.757C81.1174 168.632 79.5913 168 78 168" fill="white"/>
<path d="M84 192H72V204H84V192Z" fill="white"/>
<path d="M84 96V108H96V102C96 100.409 95.3679 98.8826 94.2426 97.7574C93.1174 96.6321 91.5913 96 90 96" fill="white"/>
<path d="M96 108H84V114C84 115.591 84.6321 117.117 85.7574 118.243C86.8826 119.368 88.4087 120 90 120C91.5913 120 93.1174 119.368 94.2426 118.243C95.3679 117.117 96 115.591 96 114" fill="white"/>
<path d="M96 192H84V204H96V192Z" fill="white"/>
<path d="M96 24H108V18C108 16.4087 107.368 14.8826 106.243 13.7574C105.117 12.6321 103.591 12 102 12C100.409 12 98.8826 12.6321 97.7574 13.7574C96.6321 14.8826 96 16.4087 96 18" fill="white"/>
<path d="M108 24H96V30C96 31.5913 96.6321 33.1174 97.7574 34.2426C98.8826 35.3679 100.409 36 102 36C103.591 36 105.117 35.3679 106.243 34.2426C107.368 33.1174 108 31.5913 108 30" fill="white"/>
<path d="M102 60C105.314 60 108 57.3137 108 54C108 50.6863 105.314 48 102 48C98.6863 48 96 50.6863 96 54C96 57.3137 98.6863 60 102 60Z" fill="white"/>
<path d="M96 84H108V78C108 76.4087 107.368 74.8826 106.243 73.7574C105.117 72.6321 103.591 72 102 72C100.409 72 98.8826 72.6321 97.7574 73.7574C96.6321 74.8826 96 76.4087 96 78" fill="white"/>
<path d="M108 84H96V90C96 91.5913 96.6321 93.1174 97.7574 94.2426C98.8826 95.3679 100.409 96 102 96C103.591 96 105.117 95.3679 106.243 94.2426C107.368 93.1174 108 91.5913 108 90" fill="white"/>
<path d="M102 132C105.314 132 108 129.314 108 126C108 122.686 105.314 120 102 120C98.6863 120 96 122.686 96 126C96 129.314 98.6863 132 102 132Z" fill="white"/>
<path d="M108 156V144H102C100.409 144 98.8826 144.632 97.7574 145.757C96.6321 146.883 96 148.409 96 150C96 151.591 96.6321 153.117 97.7574 154.243C98.8826 155.368 100.409 156 102 156" fill="white"/>
<path d="M96 192H108V186C108 184.409 107.368 182.883 106.243 181.757C105.117 180.632 103.591 180 102 180C100.409 180 98.8826 180.632 97.7574 181.757C96.6321 182.883 96 184.409 96 186" fill="white"/>
<path d="M108 192H96V204H108V192Z" fill="white"/>
<path d="M108 228V216H102C100.409 216 98.8826 216.632 97.7574 217.757C96.6321 218.883 96 220.409 96 222C96 223.591 96.6321 225.117 97.7574 226.243C98.8826 227.368 100.409 228 102 228" fill="white"/>
<path d="M96 252H108V246C108 244.409 107.368 242.883 106.243 241.757C105.117 240.632 103.591 240 102 240C100.409 240 98.8826 240.632 97.7574 241.757C96.6321 242.883 96 244.409 96 246" fill="white"/>
<path d="M108 252H96V264H108V252Z" fill="white"/>
<path d="M108 264H96V276H108V264Z" fill="white"/>
<path d="M108 276H96V288H108V276Z" fill="white"/>
<path d="M108 300V288H96V294C96 295.591 96.6321 297.117 97.7574 298.243C98.8826 299.368 100.409 300 102 300" fill="white"/>
<path d="M114 48C117.314 48 120 45.3137 120 42C120 38.6863 117.314 36 114 36C110.686 36 108 38.6863 108 42C108 45.3137 110.686 48 114 48Z" fill="white"/>
<path d="M120 72V60H114C112.409 60 110.883 60.6321 109.757 61.7574C108.632 62.8826 108 64.4087 108 66C108 67.5913 108.632 69.1174 109.757 70.2426C110.883 71.3679 112.409 72 114 72" fill="white"/>
<path d="M114 120C117.314 120 120 117.314 120 114C120 110.686 117.314 108 114 108C110.686 108 108 110.686 108 114C108 117.314 110.686 120 114 120Z" fill="white"/>
<path d="M120 144H108V156H120V144Z" fill="white"/>
<path d="M120 156H108V162C108 163.591 108.632 165.117 109.757 166.243C110.883 167.368 112.409 168 114 168C115.591 168 117.117 167.368 118.243 166.243C119.368 165.117 120 163.591 120 162" fill="white"/>
<path d="M108 192V204H120V198C120 196.409 119.368 194.883 118.243 193.757C117.117 192.632 115.591 192 114 192" fill="white"/>
<path d="M120 204H108V216H120V204Z" fill="white"/>
<path d="M120 216H108V228H120V216Z" fill="white"/>
<path d="M120 288H108V300H120V288Z" fill="white"/>
<path d="M120 60H132V54C132 52.4087 131.368 50.8826 130.243 49.7574C129.117 48.6321 127.591 48 126 48C124.409 48 122.883 48.6321 121.757 49.7574C120.632 50.8826 120 52.4087 120 54" fill="white"/>
<path d="M132 60H120V72H132V60Z" fill="white"/>
<path d="M132 72H120V84H132V72Z" fill="white"/>
<path d="M132 96V84H120V90C120 91.5913 120.632 93.1174 121.757 94.2426C122.883 95.3679 124.409 96 126 96" fill="white"/>
<path d="M126 132C129.314 132 132 129.314 132 126C132 122.686 129.314 120 126 120C122.686 120 120 122.686 120 126C120 129.314 122.686 132 126 132Z" fill="white"/>
<path d="M120 144V156H126C127.591 156 129.117 155.368 130.243 154.243C131.368 153.117 132 151.591 132 150C132 148.409 131.368 146.883 130.243 145.757C129.117 144.632 127.591 144 126 144" fill="white"/>
<path d="M132 180V168H126C124.409 168 122.883 168.632 121.757 169.757C120.632 170.883 120 172.409 120 174C120 175.591 120.632 177.117 121.757 178.243C122.883 179.368 124.409 180 126 180" fill="white"/>
<path d="M132 204H120V216H132V204Z" fill="white"/>
<path d="M132 216H120V228H126C127.591 228 129.117 227.368 130.243 226.243C131.368 225.117 132 223.591 132 222" fill="white"/>
<path d="M132 252V240H126C124.409 240 122.883 240.632 121.757 241.757C120.632 242.883 120 244.409 120 246C120 247.591 120.632 249.117 121.757 250.243C122.883 251.368 124.409 252 126 252" fill="white"/>
<path d="M120 276H132V270C132 268.409 131.368 266.883 130.243 265.757C129.117 264.632 127.591 264 126 264C124.409 264 122.883 264.632 121.757 265.757C120.632 266.883 120 268.409 120 270" fill="white"/>
<path d="M132 276H120V288H132V276Z" fill="white"/>
<path d="M132 288H120V300H126C127.591 300 129.117 299.368 130.243 298.243C131.368 297.117 132 295.591 132 294" fill="white"/>
<path d="M132 24H144V12H138C136.409 12 134.883 12.6321 133.757 13.7574C132.632 14.8826 132 16.4087 132 18" fill="white"/>
<path d="M144 24H132V30C132 31.5913 132.632 33.1174 133.757 34.2426C134.883 35.3679 136.409 36 138 36C139.591 36 141.117 35.3679 142.243 34.2426C143.368 33.1174 144 31.5913 144 30" fill="white"/>
<path d="M144 60H132V72H144V60Z" fill="white"/>
<path d="M144 84H132V96H144V84Z" fill="white"/>
<path d="M138 120C141.314 120 144 117.314 144 114C144 110.686 141.314 108 138 108C134.686 108 132 110.686 132 114C132 117.314 134.686 120 138 120Z" fill="white"/>
<path d="M132 168H144V162C144 160.409 143.368 158.883 142.243 157.757C141.117 156.632 139.591 156 138 156C136.409 156 134.883 156.632 133.757 157.757C132.632 158.883 132 160.409 132 162" fill="white"/>
<path d="M144 168H132V180H144V168Z" fill="white"/>
<path d="M144 204H132V216H144V204Z" fill="white"/>
<path d="M132 240H144V228H138C136.409 228 134.883 228.632 133.757 229.757C132.632 230.883 132 232.409 132 234" fill="white"/>
<path d="M144 240H132V252H138C139.591 252 141.117 251.368 142.243 250.243C143.368 249.117 144 247.591 144 246" fill="white"/>
<path d="M144 276H132V288H144V276Z" fill="white"/>
<path d="M156 12H144V24H156V12Z" fill="white"/>
<path d="M144 60H156V54C156 52.4087 155.368 50.8826 154.243 49.7574C153.117 48.6321 151.591 48 150 48C148.409 48 146.883 48.6321 145.757 49.7574C144.632 50.8826 144 52.4087 144 54" fill="white"/>
<path d="M156 60H144V72H156V60Z" fill="white"/>
<path d="M156 72H144V84H156V72Z" fill="white"/>
<path d="M156 84H144V96H156V84Z" fill="white"/>
<path d="M156 96H144V102C144 103.591 144.632 105.117 145.757 106.243C146.883 107.368 148.409 108 150 108C151.591 108 153.117 107.368 154.243 106.243C155.368 105.117 156 103.591 156 102" fill="white"/>
<path d="M150 144C153.314 144 156 141.314 156 138C156 134.686 153.314 132 150 132C146.686 132 144 134.686 144 138C144 141.314 146.686 144 150 144Z" fill="white"/>
<path d="M156 168H144V180H156V168Z" fill="white"/>
<path d="M144 204H156V192H150C148.409 192 146.883 192.632 145.757 193.757C144.632 194.883 144 196.409 144 198" fill="white"/>
<path d="M156 204H144V216H156V204Z" fill="white"/>
<path d="M156 216H144V228H156V216Z" fill="white"/>
<path d="M156 228H144V240H150C151.591 240 153.117 239.368 154.243 238.243C155.368 237.117 156 235.591 156 234" fill="white"/>
<path d="M156 264V252H150C148.409 252 146.883 252.632 145.757 253.757C144.632 254.883 144 256.409 144 258C144 259.591 144.632 261.117 145.757 262.243C146.883 263.368 148.409 264 150 264" fill="white"/>
<path d="M144 276V288H156V282C156 280.409 155.368 278.883 154.243 277.757C153.117 276.632 151.591 276 150 276" fill="white"/>
<path d="M156 300V288H144V294C144 295.591 144.632 297.117 145.757 298.243C146.883 299.368 148.409 300 150 300" fill="white"/>
<path d="M156 12V24H168V18C168 16.4087 167.368 14.8826 166.243 13.7574C165.117 12.6321 163.591 12 162 12" fill="white"/>
<path d="M168 24H156V36H168V24Z" fill="white"/>
<path d="M168 48V36H156V42C156 43.5913 156.632 45.1174 157.757 46.2426C158.883 47.3679 160.409 48 162 48" fill="white"/>
<path d="M168 84H156V96H168V84Z" fill="white"/>
<path d="M162 132C165.314 132 168 129.314 168 126C168 122.686 165.314 120 162 120C158.686 120 156 122.686 156 126C156 129.314 158.686 132 162 132Z" fill="white"/>
<path d="M156 168H168V156H162C160.409 156 158.883 156.632 157.757 157.757C156.632 158.883 156 160.409 156 162" fill="white"/>
<path d="M168 168H156V180H168V168Z" fill="white"/>
<path d="M168 192H156V204H168V192Z" fill="white"/>
<path d="M168 204H156V216H168V204Z" fill="white"/>
<path d="M168 216H156V228H168V216Z" fill="white"/>
<path d="M156 252V264H162C163.591 264 165.117 263.368 166.243 262.243C167.368 261.117 168 259.591 168 258C168 256.409 167.368 254.883 166.243 253.757C165.117 252.632 163.591 252 162 252" fill="white"/>
<path d="M168 288H156V300H168V288Z" fill="white"/>
<path d="M174 12C177.314 12 180 9.31371 180 6C180 2.68629 177.314 0 174 0C170.686 0 168 2.68629 168 6C168 9.31371 170.686 12 174 12Z" fill="white"/>
<path d="M168 36V48H174C175.591 48 177.117 47.3679 178.243 46.2426C179.368 45.1174 180 43.5913 180 42C180 40.4087 179.368 38.8826 178.243 37.7574C177.117 36.6321 175.591 36 174 36" fill="white"/>
<path d="M168 84H180V78C180 76.4087 179.368 74.8826 178.243 73.7574C177.117 72.6321 175.591 72 174 72C172.409 72 170.883 72.6321 169.757 73.7574C168.632 74.8826 168 76.4087 168 78" fill="white"/>
<path d="M180 84H168V96H180V84Z" fill="white"/>
<path d="M180 96H168V108H180V96Z" fill="white"/>
<path d="M180 108H168V114C168 115.591 168.632 117.117 169.757 118.243C170.883 119.368 172.409 120 174 120C175.591 120 177.117 119.368 178.243 118.243C179.368 117.117 180 115.591 180 114" fill="white"/>
<path d="M180 144V132H174C172.409 132 170.883 132.632 169.757 133.757C168.632 134.883 168 136.409 168 138C168 139.591 168.632 141.117 169.757 142.243C170.883 143.368 172.409 144 174 144" fill="white"/>
<path d="M168 156V168H180V162C180 160.409 179.368 158.883 178.243 157.757C177.117 156.632 175.591 156 174 156" fill="white"/>
<path d="M180 168H168V180H180V168Z" fill="white"/>
<path d="M180 192H168V204H180V192Z" fill="white"/>
<path d="M180 204H168V216H180V204Z" fill="white"/>
<path d="M180 216H168V228H180V216Z" fill="white"/>
<path d="M180 228H168V234C168 235.591 168.632 237.117 169.757 238.243C170.883 239.368 172.409 240 174 240C175.591 240 177.117 239.368 178.243 238.243C179.368 237.117 180 235.591 180 234" fill="white"/>
<path d="M168 276H180V270C180 268.409 179.368 266.883 178.243 265.757C177.117 264.632 175.591 264 174 264C172.409 264 170.883 264.632 169.757 265.757C168.632 266.883 168 268.409 168 270" fill="white"/>
<path d="M180 276H168V288H180V276Z" fill="white"/>
<path d="M180 288H168V300H174C175.591 300 177.117 299.368 178.243 298.243C179.368 297.117 180 295.591 180 294" fill="white"/>
<path d="M180 24H192V18C192 16.4087 191.368 14.8826 190.243 13.7574C189.117 12.6321 187.591 12 186 12C184.409 12 182.883 12.6321 181.757 13.7574C180.632 14.8826 180 16.4087 180 18" fill="white"/>
<path d="M192 36V24H180V30C180 31.5913 180.632 33.1174 181.757 34.2426C182.883 35.3679 184.409 36 186 36" fill="white"/>
<path d="M180 60H192V54C192 52.4087 191.368 50.8826 190.243 49.7574C189.117 48.6321 187.591 48 186 48C184.409 48 182.883 48.6321 181.757 49.7574C180.632 50.8826 180 52.4087 180 54" fill="white"/>
<path d="M192 60H180V66C180 67.5913 180.632 69.1174 181.757 70.2426C182.883 71.3679 184.409 72 186 72C187.591 72 189.117 71.3679 190.243 70.2426C191.368 69.1174 192 67.5913 192 66" fill="white"/>
<path d="M180 132H192V126C192 124.409 191.368 122.883 190.243 121.757C189.117 120.632 187.591 120 186 120C184.409 120 182.883 120.632 181.757 121.757C180.632 122.883 180 124.409 180 126" fill="white"/>
<path d="M192 132H180V144H192V132Z" fill="white"/>
<path d="M180 168V180H186C187.591 180 189.117 179.368 190.243 178.243C191.368 177.117 192 175.591 192 174C192 172.409 191.368 170.883 190.243 169.757C189.117 168.632 187.591 168 186 168" fill="white"/>
<path d="M192 192H180V204H192V192Z" fill="white"/>
<path d="M192 252V240H186C184.409 240 182.883 240.632 181.757 241.757C180.632 242.883 180 244.409 180 246C180 247.591 180.632 249.117 181.757 250.243C182.883 251.368 184.409 252 186 252" fill="white"/>
<path d="M180 276V288H186C187.591 288 189.117 287.368 190.243 286.243C191.368 285.117 192 283.591 192 282C192 280.409 191.368 278.883 190.243 277.757C189.117 276.632 187.591 276 186 276" fill="white"/>
<path d="M198 12C201.314 12 204 9.31371 204 6C204 2.68629 201.314 0 198 0C194.686 0 192 2.68629 192 6C192 9.31371 194.686 12 198 12Z" fill="white"/>
<path d="M192 24V36H204V30C204 28.4087 203.368 26.8826 202.243 25.7574C201.117 24.6321 199.591 24 198 24" fill="white"/>
<path d="M204 36H192V42C192 43.5913 192.632 45.1174 193.757 46.2426C194.883 47.3679 196.409 48 198 48C199.591 48 201.117 47.3679 202.243 46.2426C203.368 45.1174 204 43.5913 204 42" fill="white"/>
<path d="M198 84C201.314 84 204 81.3137 204 78C204 74.6863 201.314 72 198 72C194.686 72 192 74.6863 192 78C192 81.3137 194.686 84 198 84Z" fill="white"/>
<path d="M204 108V96H198C196.409 96 194.883 96.6321 193.757 97.7574C192.632 98.8826 192 100.409 192 102C192 103.591 192.632 105.117 193.757 106.243C194.883 107.368 196.409 108 198 108" fill="white"/>
<path d="M204 132H192V144H204V132Z" fill="white"/>
<path d="M204 144H192V156H204V144Z" fill="white"/>
<path d="M204 168V156H192V162C192 163.591 192.632 165.117 193.757 166.243C194.883 167.368 196.409 168 198 168" fill="white"/>
<path d="M192 192H204V180H198C196.409 180 194.883 180.632 193.757 181.757C192.632 182.883 192 184.409 192 186" fill="white"/>
<path d="M204 192H192V204H204V192Z" fill="white"/>
<path d="M204 204H192V216H204V204Z" fill="white"/>
<path d="M204 216H192V228H204V216Z" fill="white"/>
<path d="M204 228H192V240H204V228Z" fill="white"/>
<path d="M204 240H192V252H204V240Z" fill="white"/>
<path d="M204 264V252H192V258C192 259.591 192.632 261.117 193.757 262.243C194.883 263.368 196.409 264 198 264" fill="white"/>
<path d="M216 96H204V108H216V96Z" fill="white"/>
<path d="M216 132H204V144H216V132Z" fill="white"/>
<path d="M204 156V168H210C211.591 168 213.117 167.368 214.243 166.243C215.368 165.117 216 163.591 216 162C216 160.409 215.368 158.883 214.243 157.757C213.117 156.632 211.591 156 210 156" fill="white"/>
<path d="M216 180H204V192H216V180Z" fill="white"/>
<path d="M216 192H204V204H216V192Z" fill="white"/>
<path d="M216 240H204V252H216V240Z" fill="white"/>
<path d="M216 252H204V264H216V252Z" fill="white"/>
<path d="M204 288H216V276H210C208.409 276 206.883 276.632 205.757 277.757C204.632 278.883 204 280.409 204 282" fill="white"/>
<path d="M216 300V288H204V294C204 295.591 204.632 297.117 205.757 298.243C206.883 299.368 208.409 300 210 300" fill="white"/>
<path d="M216 96V108H222C223.591 108 225.117 107.368 226.243 106.243C227.368 105.117 228 103.591 228 102C228 100.409 227.368 98.8826 226.243 97.7574C225.117 96.6321 223.591 96 222 96" fill="white"/>
<path d="M216 132H228V120H222C220.409 120 218.883 120.632 217.757 121.757C216.632 122.883 216 124.409 216 126" fill="white"/>
<path d="M228 132H216V144H222C223.591 144 225.117 143.368 226.243 142.243C227.368 141.117 228 139.591 228 138" fill="white"/>
<path d="M216 180H228V174C228 172.409 227.368 170.883 226.243 169.757C225.117 168.632 223.591 168 222 168C220.409 168 218.883 168.632 217.757 169.757C216.632 170.883 216 172.409 216 174" fill="white"/>
<path d="M228 180H216V192H228V180Z" fill="white"/>
<path d="M228 192H216V204H228V192Z" fill="white"/>
<path d="M222 228C225.314 228 228 225.314 228 222C228 218.686 225.314 216 222 216C218.686 216 216 218.686 216 222C216 225.314 218.686 228 222 228Z" fill="white"/>
<path d="M228 240H216V252H228V240Z" fill="white"/>
<path d="M228 252H216V264H228V252Z" fill="white"/>
<path d="M228 276H216V288H228V276Z" fill="white"/>
<path d="M228 288H216V300H228V288Z" fill="white"/>
<path d="M228 120V132H234C235.591 132 237.117 131.368 238.243 130.243C239.368 129.117 240 127.591 240 126C240 124.409 239.368 122.883 238.243 121.757C237.117 120.632 235.591 120 234 120" fill="white"/>
<path d="M240 156V144H234C232.409 144 230.883 144.632 229.757 145.757C228.632 146.883 228 148.409 228 150C228 151.591 228.632 153.117 229.757 154.243C230.883 155.368 232.409 156 234 156" fill="white"/>
<path d="M228 180V192H240V186C240 184.409 239.368 182.883 238.243 181.757C237.117 180.632 235.591 180 234 180" fill="white"/>
<path d="M240 192H228V204H240V192Z" fill="white"/>
<path d="M240 240H228V252H240V240Z" fill="white"/>
<path d="M240 252H228V264H240V252Z" fill="white"/>
<path d="M228 276V288H240V282C240 280.409 239.368 278.883 238.243 277.757C237.117 276.632 235.591 276 234 276" fill="white"/>
<path d="M240 288H228V300H240V288Z" fill="white"/>
<path d="M240 108H252V102C252 100.409 251.368 98.8826 250.243 97.7574C249.117 96.6321 247.591 96 246 96C244.409 96 242.883 96.6321 241.757 97.7574C240.632 98.8826 240 100.409 240 102" fill="white"/>
<path d="M252 120V108H240V114C240 115.591 240.632 117.117 241.757 118.243C242.883 119.368 244.409 120 246 120" fill="white"/>
<path d="M240 144V156H246C247.591 156 249.117 155.368 250.243 154.243C251.368 153.117 252 151.591 252 150C252 148.409 251.368 146.883 250.243 145.757C249.117 144.632 247.591 144 246 144" fill="white"/>
<path d="M240 192V204H252V198C252 196.409 251.368 194.883 250.243 193.757C249.117 192.632 247.591 192 246 192" fill="white"/>
<path d="M252 204H240V216H252V204Z" fill="white"/>
<path d="M252 216H240V228H252V216Z" fill="white"/>
<path d="M252 228H240V240H252V228Z" fill="white"/>
<path d="M252 240H240V252H252V240Z" fill="white"/>
<path d="M252 252H240V264H252V252Z" fill="white"/>
<path d="M240 288V300H246C247.591 300 249.117 299.368 250.243 298.243C251.368 297.117 252 295.591 252 294C252 292.409 251.368 290.883 250.243 289.757C249.117 288.632 247.591 288 246 288" fill="white"/>
<path d="M252 108V120H264V114C264 112.409 263.368 110.883 262.243 109.757C261.117 108.632 259.591 108 258 108" fill="white"/>
<path d="M264 120H252V126C252 127.591 252.632 129.117 253.757 130.243C254.883 131.368 256.409 132 258 132C259.591 132 261.117 131.368 262.243 130.243C263.368 129.117 264 127.591 264 126" fill="white"/>
<path d="M252 168H264V162C264 160.409 263.368 158.883 262.243 157.757C261.117 156.632 259.591 156 258 156C256.409 156 254.883 156.632 253.757 157.757C252.632 158.883 252 160.409 252 162" fill="white"/>
<path d="M264 168H252V174C252 175.591 252.632 177.117 253.757 178.243C254.883 179.368 256.409 180 258 180C259.591 180 261.117 179.368 262.243 178.243C263.368 177.117 264 175.591 264 174" fill="white"/>
<path d="M252 228V240H264V234C264 232.409 263.368 230.883 262.243 229.757C261.117 228.632 259.591 228 258 228" fill="white"/>
<path d="M264 240H252V252H264V240Z" fill="white"/>
<path d="M264 252H252V264H264V252Z" fill="white"/>
<path d="M264 264H252V270C252 271.591 252.632 273.117 253.757 274.243C254.883 275.368 256.409 276 258 276C259.591 276 261.117 275.368 262.243 274.243C263.368 273.117 264 271.591 264 270" fill="white"/>
<path d="M276 108V96H270C268.409 96 266.883 96.6321 265.757 97.7574C264.632 98.8826 264 100.409 264 102C264 103.591 264.632 105.117 265.757 106.243C266.883 107.368 268.409 108 270 108" fill="white"/>
<path d="M276 156V144H270C268.409 144 266.883 144.632 265.757 145.757C264.632 146.883 264 148.409 264 150C264 151.591 264.632 153.117 265.757 154.243C266.883 155.368 268.409 156 270 156" fill="white"/>
<path d="M276 204V192H270C268.409 192 266.883 192.632 265.757 193.757C264.632 194.883 264 196.409 264 198C264 199.591 264.632 201.117 265.757 202.243C266.883 203.368 268.409 204 270 204" fill="white"/>
<path d="M276 240H264V252H276V240Z" fill="white"/>
<path d="M270 300C273.314 300 276 297.314 276 294C276 290.686 273.314 288 270 288C266.686 288 264 290.686 264 294C264 297.314 266.686 300 270 300Z" fill="white"/>
<path d="M276 96V108H288V102C288 100.409 287.368 98.8826 286.243 97.7574C285.117 96.6321 283.591 96 282 96" fill="white"/>
<path d="M288 108H276V120H288V108Z" fill="white"/>
<path d="M288 120H276V132H288V120Z" fill="white"/>
<path d="M288 132H276V144H288V132Z" fill="white"/>
<path d="M288 144H276V156H288V144Z" fill="white"/>
<path d="M276 180H288V168H282C280.409 168 278.883 168.632 277.757 169.757C276.632 170.883 276 172.409 276 174" fill="white"/>
<path d="M288 180H276V192H288V180Z" fill="white"/>
<path d="M288 192H276V204H288V192Z" fill="white"/>
<path d="M288 216V204H276V210C276 211.591 276.632 213.117 277.757 214.243C278.883 215.368 280.409 216 282 216" fill="white"/>
<path d="M276 240V252H288V246C288 244.409 287.368 242.883 286.243 241.757C285.117 240.632 283.591 240 282 240" fill="white"/>
<path d="M288 252H276V258C276 259.591 276.632 261.117 277.757 262.243C278.883 263.368 280.409 264 282 264C283.591 264 285.117 263.368 286.243 262.243C287.368 261.117 288 259.591 288 258" fill="white"/>
<path d="M288 288V276H282C280.409 276 278.883 276.632 277.757 277.757C276.632 278.883 276 280.409 276 282C276 283.591 276.632 285.117 277.757 286.243C278.883 287.368 280.409 288 282 288" fill="white"/>
<path d="M288 120V132H294C295.591 132 297.117 131.368 298.243 130.243C299.368 129.117 300 127.591 300 126C300 124.409 299.368 122.883 298.243 121.757C297.117 120.632 295.591 120 294 120" fill="white"/>
<path d="M288 144V156H294C295.591 156 297.117 155.368 298.243 154.243C299.368 153.117 300 151.591 300 150C300 148.409 299.368 146.883 298.243 145.757C297.117 144.632 295.591 144 294 144" fill="white"/>
<path d="M288 168V180H300V174C300 172.409 299.368 170.883 298.243 169.757C297.117 168.632 295.591 168 294 168" fill="white"/>
<path d="M300 180H288V192H300V180Z" fill="white"/>
<path d="M300 192H288V204H300V192Z" fill="white"/>
<path d="M300 204H288V216H294C295.591 216 297.117 215.368 298.243 214.243C299.368 213.117 300 211.591 300 210" fill="white"/>
<path d="M294 240C297.314 240 300 237.314 300 234C300 230.686 297.314 228 294 228C290.686 228 288 230.686 288 234C288 237.314 290.686 240 294 240Z" fill="white"/>
<path d="M288 276V288H300V282C300 280.409 299.368 278.883 298.243 277.757C297.117 276.632 295.591 276 294 276" fill="white"/>
<path d="M300 288H288V294C288 295.591 288.632 297.117 289.757 298.243C290.883 299.368 292.409 300 294 300C295.591 300 297.117 299.368 298.243 298.243C299.368 297.117 300 295.591 300 294" fill="white"/>
<path fill-rule="evenodd" clip-rule="evenodd" d="M0 30V54C0 61.9565 3.16071 69.5871 8.7868 75.2132C14.4129 80.8393 22.0435 84 30 84H54C61.9565 84 69.5871 80.8393 75.2132 75.2132C80.8393 69.5871 84 61.9565 84 54V30C84 22.0435 80.8393 14.4129 75.2132 8.7868C69.5871 3.16071 61.9565 0 54 0L30 0C22.0435 0 14.4129 3.16071 8.7868 8.7868C3.16071 14.4129 0 22.0435 0 30ZM30 12H54C58.7739 12 63.3523 13.8964 66.7279 17.2721C70.1036 20.6477 72 25.2261 72 30V54C72 58.7739 70.1036 63.3523 66.7279 66.7279C63.3523 70.1036 58.7739 72 54 72H30C25.2261 72 20.6477 70.1036 17.2721 66.7279C13.8964 63.3523 12 58.7739 12 54V30C12 25.2261 13.8964 20.6477 17.2721 17.2721C20.6477 13.8964 25.2261 12 30 12Z" fill="white"/>
<path d="M24 36H36V24H30C28.4087 24 26.8826 24.6321 25.7574 25.7574C24.6321 26.8826 24 28.4087 24 30" fill="white"/>
<path d="M36 36H24V48H36V36Z" fill="white"/>
<path d="M36 60V48H24V54C24 55.5913 24.6321 57.1174 25.7574 58.2426C26.8826 59.3679 28.4087 60 30 60" fill="white"/>
<path d="M48 24H36V36H48V24Z" fill="white"/>
<path d="M48 36H36V48H48V36Z" fill="white"/>
<path d="M48 48H36V60H48V48Z" fill="white"/>
<path d="M48 24V36H60V30C60 28.4087 59.3679 26.8826 58.2426 25.7574C57.1174 24.6321 55.5913 24 54 24" fill="white"/>
<path d="M60 36H48V48H60V36Z" fill="white"/>
<path d="M60 48H48V60H54C55.5913 60 57.1174 59.3679 58.2426 58.2426C59.3679 57.1174 60 55.5913 60 54" fill="white"/>
<path fill-rule="evenodd" clip-rule="evenodd" d="M270 0L246 0C238.044 0 230.413 3.1607 224.787 8.78679C219.161 14.4129 216 22.0435 216 30V54C216 61.9565 219.161 69.5871 224.787 75.2132C230.413 80.8393 238.044 84 246 84H270C277.956 84 285.587 80.8393 291.213 75.2132C296.839 69.5871 300 61.9565 300 54V30C300 22.0435 296.839 14.4129 291.213 8.78679C285.587 3.1607 277.956 0 270 0ZM288 30V54C288 58.7739 286.104 63.3523 282.728 66.7279C279.352 70.1036 274.774 72 270 72H246C241.226 72 236.648 70.1036 233.272 66.7279C229.896 63.3523 228 58.7739 228 54V30C228 25.2261 229.896 20.6477 233.272 17.2721C236.648 13.8964 241.226 12 246 12L270 12C274.774 12 279.352 13.8964 282.728 17.2721C286.104 20.6477 288 25.2261 288 30Z" fill="white"/>
<path d="M240 36H252V24H246C244.409 24 242.883 24.6321 241.757 25.7574C240.632 26.8826 240 28.4087 240 30" fill="white"/>
<path d="M252 36H240V48H252V36Z" fill="white"/>
<path d="M252 60V48H240V54C240 55.5913 240.632 57.1174 241.757 58.2426C242.883 59.3679 244.409 60 246 60" fill="white"/>
<path d="M264 24H252V36H264V24Z" fill="white"/>
<path d="M264 36H252V48H264V36Z" fill="white"/>
<path d="M264 48H252V60H264V48Z" fill="white"/>
<path d="M264 24V36H276V30C276 28.4087 275.368 26.8826 274.243 25.7574C273.117 24.6321 271.591 24 270 24" fill="white"/>
<path d="M276 36H264V48H276V36Z" fill="white"/>
<path d="M276 48H264V60H270C271.591 60 273.117 59.3679 274.243 58.2426C275.368 57.1174 276 55.5913 276 54" fill="white"/>
<path fill-rule="evenodd" clip-rule="evenodd" d="M30 300H54C61.9565 300 69.5871 296.839 75.2132 291.213C80.8393 285.587 84 277.956 84 270V246C84 238.044 80.8393 230.413 75.2132 224.787C69.5871 219.161 61.9565 216 54 216H30C22.0435 216 14.4129 219.161 8.78679 224.787C3.1607 230.413 0 238.044 0 246L0 270C0 277.956 3.1607 285.587 8.78679 291.213C14.4129 296.839 22.0435 300 30 300ZM12 270L12 246C12 241.226 13.8964 236.648 17.2721 233.272C20.6477 229.896 25.2261 228 30 228H54C58.7739 228 63.3523 229.896 66.7279 233.272C70.1036 236.648 72 241.226 72 246V270C72 274.774 70.1036 279.352 66.7279 282.728C63.3523 286.104 58.7739 288 54 288H30C25.2261 288 20.6477 286.104 17.2721 282.728C13.8964 279.352 12 274.774 12 270Z" fill="white"/>
<path d="M24 252H36V240H30C28.4087 240 26.8826 240.632 25.7574 241.757C24.6321 242.883 24 244.409 24 246" fill="white"/>
<path d="M36 252H24V264H36V252Z" fill="white"/>
<path d="M36 276V264H24V270C24 271.591 24.6321 273.117 25.7574 274.243C26.8826 275.368 28.4087 276 30 276" fill="white"/>
<path d="M48 240H36V252H48V240Z" fill="white"/>
<path d="M48 252H36V264H48V252Z" fill="white"/>
<path d="M48 264H36V276H48V264Z" fill="white"/>
<path d="M48 240V252H60V246C60 244.409 59.3679 242.883 58.2426 241.757C57.1174 240.632 55.5913 240 54 240" fill="white"/>
<path d="M60 252H48V264H60V252Z" fill="white"/>
<path d="M60 264H48V276H54C55.5913 276 57.1174 275.368 58.2426 274.243C59.3679 273.117 60 271.591 60 270" fill="white"/>
</mask>
<g mask="url(#mask0_2_2)">
<path d="M300 0H0V300H300V0Z" fill="#10753A"/>
</g>
</g>
<defs>
<clipPath id="clip0_2_2">
<rect width="300" height="300" fill="white"/>
</clipPath>
</defs>
</svg>
