<svg width="332" height="332" viewBox="0 0 332 332" fill="none" xmlns="http://www.w3.org/2000/svg">
<g clip-path="url(#clip0_25_107)">
<path d="M332 0H0V332H332V0Z" fill="white"/>
<path d="M5.53333 105.133H16.6V99.6C16.6 98.1324 16.017 96.725 14.9793 95.6873C13.9416 94.6496 12.5342 94.0666 11.0667 94.0666C9.59913 94.0666 8.1917 94.6496 7.154 95.6873C6.1163 96.725 5.53333 98.1324 5.53333 99.6" fill="#367D77"/>
<path d="M16.6 105.133H5.53333V116.2H16.6V105.133Z" fill="#367D77"/>
<path d="M16.6 127.267V116.2H5.53334L5.53334 121.733C5.53334 123.201 6.11631 124.608 7.15402 125.646C8.19172 126.684 9.59914 127.267 11.0667 127.267" fill="#367D77"/>
<path d="M11.0667 149.4C14.1226 149.4 16.6 146.923 16.6 143.867C16.6 140.811 14.1226 138.333 11.0667 138.333C8.01068 138.333 5.53333 140.811 5.53333 143.867C5.53333 146.923 8.01068 149.4 11.0667 149.4Z" fill="#367D77"/>
<path d="M5.53333 204.733H16.6V193.667H11.0667C9.59913 193.667 8.1917 194.25 7.154 195.287C6.1163 196.325 5.53333 197.732 5.53333 199.2" fill="#367D77"/>
<path d="M16.6 204.733H5.53333V215.8H16.6V204.733Z" fill="#367D77"/>
<path d="M16.6 215.8H5.53333V226.867H16.6V215.8Z" fill="#367D77"/>
<path d="M16.6 237.933V226.867H5.53334L5.53334 232.4C5.53334 233.868 6.11631 235.275 7.15402 236.313C8.19172 237.35 9.59914 237.933 11.0667 237.933" fill="#367D77"/>
<path d="M27.6667 116.2H16.6V127.267H27.6667V116.2Z" fill="#367D77"/>
<path d="M16.6 160.467H27.6667V154.933C27.6667 153.466 27.0837 152.058 26.046 151.021C25.0083 149.983 23.6009 149.4 22.1333 149.4C20.6658 149.4 19.2584 149.983 18.2207 151.021C17.183 152.058 16.6 153.466 16.6 154.933" fill="#367D77"/>
<path d="M27.6667 171.533V160.467H16.6V166C16.6 167.468 17.183 168.875 18.2207 169.913C19.2584 170.95 20.6658 171.533 22.1333 171.533" fill="#367D77"/>
<path d="M16.6 193.667H27.6667V188.133C27.6667 186.666 27.0837 185.258 26.046 184.221C25.0083 183.183 23.6009 182.6 22.1333 182.6C20.6658 182.6 19.2584 183.183 18.2207 184.221C17.183 185.258 16.6 186.666 16.6 188.133" fill="#367D77"/>
<path d="M27.6667 193.667H16.6V204.733H22.1333C23.6009 204.733 25.0083 204.15 26.046 203.113C27.0837 202.075 27.6667 200.668 27.6667 199.2" fill="#367D77"/>
<path d="M27.6667 226.867H16.6V237.933H27.6667V226.867Z" fill="#367D77"/>
<path d="M27.6667 116.2H38.7333V105.133H33.2C31.7325 105.133 30.325 105.716 29.2873 106.754C28.2496 107.792 27.6667 109.199 27.6667 110.667" fill="#367D77"/>
<path d="M38.7333 116.2H27.6667V127.267H38.7333V116.2Z" fill="#367D77"/>
<path d="M38.7333 127.267H27.6667V138.333H38.7333V127.267Z" fill="#367D77"/>
<path d="M38.7333 149.4V138.333H27.6667V143.867C27.6667 145.334 28.2496 146.742 29.2873 147.779C30.325 148.817 31.7325 149.4 33.2 149.4" fill="#367D77"/>
<path d="M38.7333 160.467H27.6667V171.533H38.7333V160.467Z" fill="#367D77"/>
<path d="M27.6667 226.867H38.7333V215.8H33.2C31.7325 215.8 30.325 216.383 29.2873 217.421C28.2496 218.458 27.6667 219.866 27.6667 221.333" fill="#367D77"/>
<path d="M38.7333 226.867H27.6667V237.933H33.2C34.6675 237.933 36.075 237.35 37.1127 236.313C38.1504 235.275 38.7333 233.868 38.7333 232.4" fill="#367D77"/>
<path d="M38.7333 105.133V116.2H49.8V110.667C49.8 109.199 49.217 107.792 48.1793 106.754C47.1416 105.716 45.7342 105.133 44.2667 105.133" fill="#367D77"/>
<path d="M49.8 116.2H38.7333V127.267H49.8V116.2Z" fill="#367D77"/>
<path d="M49.8 127.267H38.7333V138.333H49.8V127.267Z" fill="#367D77"/>
<path d="M49.8 138.333H38.7333V149.4H49.8V138.333Z" fill="#367D77"/>
<path d="M38.7333 160.467V171.533H49.8V166C49.8 164.532 49.217 163.125 48.1793 162.087C47.1416 161.05 45.7342 160.467 44.2667 160.467" fill="#367D77"/>
<path d="M49.8 171.533H38.7333V182.6H49.8V171.533Z" fill="#367D77"/>
<path d="M49.8 182.6H38.7333V193.667H49.8V182.6Z" fill="#367D77"/>
<path d="M49.8 204.733V193.667H38.7333V199.2C38.7333 200.668 39.3163 202.075 40.354 203.113C41.3917 204.15 42.7991 204.733 44.2667 204.733" fill="#367D77"/>
<path d="M49.8 215.8H38.7333V226.867H49.8V215.8Z" fill="#367D77"/>
<path d="M60.8667 105.133V94.0666H55.3333C53.8658 94.0666 52.4584 94.6496 51.4207 95.6873C50.383 96.725 49.8 98.1324 49.8 99.6C49.8 101.067 50.383 102.475 51.4207 103.513C52.4584 104.55 53.8658 105.133 55.3333 105.133" fill="#367D77"/>
<path d="M60.8667 116.2H49.8V127.267H60.8667V116.2Z" fill="#367D77"/>
<path d="M60.8667 127.267H49.8V138.333H60.8667V127.267Z" fill="#367D77"/>
<path d="M60.8667 138.333H49.8V149.4H60.8667V138.333Z" fill="#367D77"/>
<path d="M60.8667 149.4H49.8V154.933C49.8 156.401 50.383 157.808 51.4207 158.846C52.4584 159.884 53.8658 160.467 55.3333 160.467C56.8009 160.467 58.2083 159.884 59.246 158.846C60.2837 157.808 60.8667 156.401 60.8667 154.933" fill="#367D77"/>
<path d="M49.8 193.667V204.733H60.8667V199.2C60.8667 197.732 60.2837 196.325 59.246 195.287C58.2083 194.25 56.8009 193.667 55.3333 193.667" fill="#367D77"/>
<path d="M60.8667 204.733H49.8V215.8H60.8667V204.733Z" fill="#367D77"/>
<path d="M60.8667 215.8H49.8V226.867H60.8667V215.8Z" fill="#367D77"/>
<path d="M60.8667 237.933V226.867H49.8V232.4C49.8 233.868 50.383 235.275 51.4207 236.313C52.4584 237.35 53.8658 237.933 55.3333 237.933" fill="#367D77"/>
<path d="M71.9333 94.0667H60.8667V105.133H71.9333V94.0667Z" fill="#367D77"/>
<path d="M71.9333 116.2H60.8667V127.267H71.9333V116.2Z" fill="#367D77"/>
<path d="M60.8667 171.533H71.9333V160.467H66.4C64.9325 160.467 63.525 161.05 62.4873 162.087C61.4496 163.125 60.8667 164.532 60.8667 166" fill="#367D77"/>
<path d="M71.9333 171.533H60.8667V177.067C60.8667 178.534 61.4497 179.942 62.4874 180.979C63.5251 182.017 64.9325 182.6 66.4 182.6C67.8675 182.6 69.275 182.017 70.3127 180.979C71.3504 179.942 71.9333 178.534 71.9333 177.067" fill="#367D77"/>
<path d="M71.9333 226.867H60.8667V237.933H71.9333V226.867Z" fill="#367D77"/>
<path d="M71.9333 94.0667V105.133H77.4667C78.9342 105.133 80.3416 104.55 81.3793 103.513C82.417 102.475 83 101.068 83 99.6C83 98.1325 82.417 96.725 81.3793 95.6873C80.3416 94.6496 78.9342 94.0667 77.4667 94.0667" fill="#367D77"/>
<path d="M83 116.2H71.9333V127.267H83V116.2Z" fill="#367D77"/>
<path d="M77.4667 149.4C80.5227 149.4 83 146.923 83 143.867C83 140.811 80.5227 138.333 77.4667 138.333C74.4107 138.333 71.9333 140.811 71.9333 143.867C71.9333 146.923 74.4107 149.4 77.4667 149.4Z" fill="#367D77"/>
<path d="M71.9333 160.467V171.533H77.4667C78.9342 171.533 80.3416 170.95 81.3793 169.913C82.417 168.875 83 167.468 83 166C83 164.532 82.417 163.125 81.3793 162.087C80.3416 161.05 78.9342 160.467 77.4667 160.467" fill="#367D77"/>
<path d="M83 193.667V182.6H77.4667C75.9991 182.6 74.5917 183.183 73.554 184.221C72.5163 185.258 71.9333 186.666 71.9333 188.133C71.9333 189.601 72.5163 191.008 73.554 192.046C74.5917 193.084 75.9991 193.667 77.4667 193.667" fill="#367D77"/>
<path d="M77.4667 215.8C80.5227 215.8 83 213.323 83 210.267C83 207.211 80.5227 204.733 77.4667 204.733C74.4107 204.733 71.9333 207.211 71.9333 210.267C71.9333 213.323 74.4107 215.8 77.4667 215.8Z" fill="#367D77"/>
<path d="M83 226.867H71.9333V237.933H83V226.867Z" fill="#367D77"/>
<path d="M83 116.2V127.267H94.0667V121.733C94.0667 120.266 93.4837 118.858 92.446 117.821C91.4083 116.783 90.0009 116.2 88.5333 116.2" fill="#367D77"/>
<path d="M94.0667 127.267H83V132.8C83 134.268 83.583 135.675 84.6207 136.713C85.6584 137.75 87.0658 138.333 88.5333 138.333C90.0008 138.333 91.4083 137.75 92.446 136.713C93.4837 135.675 94.0667 134.268 94.0667 132.8" fill="#367D77"/>
<path d="M88.5333 160.467C91.5893 160.467 94.0667 157.989 94.0667 154.933C94.0667 151.877 91.5893 149.4 88.5333 149.4C85.4774 149.4 83 151.877 83 154.933C83 157.989 85.4774 160.467 88.5333 160.467Z" fill="#367D77"/>
<path d="M83 182.6H94.0667V177.067C94.0667 175.599 93.4837 174.192 92.446 173.154C91.4083 172.116 90.0009 171.533 88.5333 171.533C87.0658 171.533 85.6584 172.116 84.6207 173.154C83.583 174.192 83 175.599 83 177.067" fill="#367D77"/>
<path d="M94.0667 182.6H83V193.667H94.0667V182.6Z" fill="#367D77"/>
<path d="M83 226.867H94.0667V215.8H88.5333C87.0658 215.8 85.6584 216.383 84.6207 217.421C83.583 218.458 83 219.866 83 221.333" fill="#367D77"/>
<path d="M94.0667 226.867H83V237.933H88.5333C90.0008 237.933 91.4083 237.35 92.446 236.313C93.4837 235.275 94.0667 233.868 94.0667 232.4" fill="#367D77"/>
<path d="M94.0667 27.6667H105.133V22.1334C105.133 20.6658 104.55 19.2584 103.513 18.2207C102.475 17.183 101.068 16.6 99.6 16.6C98.1325 16.6 96.725 17.183 95.6873 18.2207C94.6496 19.2584 94.0667 20.6658 94.0667 22.1334" fill="#367D77"/>
<path d="M105.133 27.6667H94.0667V38.7334H105.133V27.6667Z" fill="#367D77"/>
<path d="M105.133 38.7333H94.0667V49.8H105.133V38.7333Z" fill="#367D77"/>
<path d="M105.133 49.8H94.0667V60.8667H105.133V49.8Z" fill="#367D77"/>
<path d="M105.133 60.8666H94.0667V71.9333H105.133V60.8666Z" fill="#367D77"/>
<path d="M105.133 71.9333H94.0667V83H105.133V71.9333Z" fill="#367D77"/>
<path d="M105.133 94.0667V83H94.0667V88.5333C94.0667 90.0008 94.6496 91.4083 95.6873 92.446C96.725 93.4837 98.1325 94.0667 99.6 94.0667" fill="#367D77"/>
<path d="M105.133 149.4V138.333H99.6C98.1325 138.333 96.725 138.916 95.6873 139.954C94.6496 140.992 94.0667 142.399 94.0667 143.867C94.0667 145.334 94.6496 146.742 95.6873 147.779C96.725 148.817 98.1325 149.4 99.6 149.4" fill="#367D77"/>
<path d="M105.133 171.533V160.467H99.6C98.1325 160.467 96.725 161.05 95.6873 162.087C94.6496 163.125 94.0667 164.532 94.0667 166C94.0667 167.468 94.6496 168.875 95.6873 169.913C96.725 170.95 98.1325 171.533 99.6 171.533" fill="#367D77"/>
<path d="M94.0667 182.6V193.667H99.6C101.068 193.667 102.475 193.084 103.513 192.046C104.55 191.008 105.133 189.601 105.133 188.133C105.133 186.666 104.55 185.258 103.513 184.221C102.475 183.183 101.068 182.6 99.6 182.6" fill="#367D77"/>
<path d="M94.0667 215.8H105.133V204.733H99.6C98.1325 204.733 96.725 205.316 95.6873 206.354C94.6496 207.392 94.0667 208.799 94.0667 210.267" fill="#367D77"/>
<path d="M105.133 215.8H94.0667V226.867H105.133V215.8Z" fill="#367D77"/>
<path d="M94.0667 271.133H105.133V260.067H99.6C98.1325 260.067 96.725 260.65 95.6873 261.687C94.6496 262.725 94.0667 264.132 94.0667 265.6" fill="#367D77"/>
<path d="M105.133 282.2V271.133H94.0667V276.667C94.0667 278.134 94.6496 279.542 95.6873 280.579C96.725 281.617 98.1325 282.2 99.6 282.2" fill="#367D77"/>
<path d="M105.133 326.467V315.4H99.6C98.1325 315.4 96.725 315.983 95.6873 317.021C94.6496 318.058 94.0667 319.466 94.0667 320.933C94.0667 322.401 94.6496 323.808 95.6873 324.846C96.725 325.884 98.1325 326.467 99.6 326.467" fill="#367D77"/>
<path d="M105.133 27.6667V38.7334H116.2V33.2C116.2 31.7325 115.617 30.3251 114.579 29.2874C113.542 28.2497 112.134 27.6667 110.667 27.6667" fill="#367D77"/>
<path d="M116.2 38.7333H105.133V49.8H116.2V38.7333Z" fill="#367D77"/>
<path d="M116.2 83H105.133V94.0667H116.2V83Z" fill="#367D77"/>
<path d="M105.133 116.2H116.2V105.133H110.667C109.199 105.133 107.792 105.716 106.754 106.754C105.716 107.792 105.133 109.199 105.133 110.667" fill="#367D77"/>
<path d="M116.2 116.2H105.133V121.733C105.133 123.201 105.716 124.608 106.754 125.646C107.792 126.684 109.199 127.267 110.667 127.267C112.134 127.267 113.542 126.684 114.579 125.646C115.617 124.608 116.2 123.201 116.2 121.733" fill="#367D77"/>
<path d="M105.133 138.333V149.4H110.667C112.134 149.4 113.542 148.817 114.579 147.779C115.617 146.742 116.2 145.334 116.2 143.867C116.2 142.399 115.617 140.992 114.579 139.954C113.542 138.916 112.134 138.333 110.667 138.333" fill="#367D77"/>
<path d="M105.133 160.467V171.533H110.667C112.134 171.533 113.542 170.95 114.579 169.913C115.617 168.875 116.2 167.468 116.2 166C116.2 164.532 115.617 163.125 114.579 162.087C113.542 161.05 112.134 160.467 110.667 160.467" fill="#367D77"/>
<path d="M105.133 204.733V215.8H116.2V210.267C116.2 208.799 115.617 207.392 114.579 206.354C113.542 205.316 112.134 204.733 110.667 204.733" fill="#367D77"/>
<path d="M116.2 215.8H105.133V226.867H116.2V215.8Z" fill="#367D77"/>
<path d="M116.2 226.867H105.133V237.933H116.2V226.867Z" fill="#367D77"/>
<path d="M116.2 237.933H105.133V249H116.2V237.933Z" fill="#367D77"/>
<path d="M116.2 249H105.133V260.067H116.2V249Z" fill="#367D77"/>
<path d="M116.2 260.067H105.133V271.133H116.2V260.067Z" fill="#367D77"/>
<path d="M116.2 271.133H105.133V282.2H110.667C112.134 282.2 113.542 281.617 114.579 280.579C115.617 279.542 116.2 278.134 116.2 276.667" fill="#367D77"/>
<path d="M105.133 315.4V326.467H110.667C112.134 326.467 113.542 325.884 114.579 324.846C115.617 323.808 116.2 322.401 116.2 320.933C116.2 319.466 115.617 318.058 114.579 317.021C113.542 315.983 112.134 315.4 110.667 315.4" fill="#367D77"/>
<path d="M116.2 16.6H127.267V11.0666C127.267 9.59911 126.684 8.19168 125.646 7.15398C124.608 6.11628 123.201 5.53331 121.733 5.53331C120.266 5.53331 118.858 6.11628 117.821 7.15398C116.783 8.19168 116.2 9.59911 116.2 11.0666" fill="#367D77"/>
<path d="M127.267 27.6667V16.6H116.2V22.1334C116.2 23.6009 116.783 25.0083 117.821 26.046C118.858 27.0837 120.266 27.6667 121.733 27.6667" fill="#367D77"/>
<path d="M127.267 38.7333H116.2V49.8H127.267V38.7333Z" fill="#367D77"/>
<path d="M127.267 60.8666V49.8H116.2V55.3333C116.2 56.8008 116.783 58.2083 117.821 59.246C118.858 60.2837 120.266 60.8666 121.733 60.8666" fill="#367D77"/>
<path d="M116.2 83H127.267V77.4667C127.267 75.9991 126.684 74.5917 125.646 73.554C124.608 72.5163 123.201 71.9333 121.733 71.9333C120.266 71.9333 118.858 72.5163 117.821 73.554C116.783 74.5917 116.2 75.9991 116.2 77.4667" fill="#367D77"/>
<path d="M127.267 83H116.2V94.0667H127.267V83Z" fill="#367D77"/>
<path d="M127.267 105.133H116.2V116.2H127.267V105.133Z" fill="#367D77"/>
<path d="M116.2 182.6H127.267V171.533H121.733C120.266 171.533 118.858 172.116 117.821 173.154C116.783 174.192 116.2 175.599 116.2 177.067" fill="#367D77"/>
<path d="M127.267 193.667V182.6H116.2V188.133C116.2 189.601 116.783 191.008 117.821 192.046C118.858 193.084 120.266 193.667 121.733 193.667" fill="#367D77"/>
<path d="M116.2 226.867V237.933H127.267V232.4C127.267 230.933 126.684 229.525 125.646 228.487C124.608 227.45 123.201 226.867 121.733 226.867" fill="#367D77"/>
<path d="M127.267 237.933H116.2V249H127.267V237.933Z" fill="#367D77"/>
<path d="M127.267 249H116.2V260.067H127.267V249Z" fill="#367D77"/>
<path d="M127.267 260.067H116.2V271.133H127.267V260.067Z" fill="#367D77"/>
<path d="M121.733 304.333C124.789 304.333 127.267 301.856 127.267 298.8C127.267 295.744 124.789 293.267 121.733 293.267C118.677 293.267 116.2 295.744 116.2 298.8C116.2 301.856 118.677 304.333 121.733 304.333Z" fill="#367D77"/>
<path d="M138.333 16.6H127.267V27.6666H138.333V16.6Z" fill="#367D77"/>
<path d="M138.333 27.6667H127.267V38.7334H138.333V27.6667Z" fill="#367D77"/>
<path d="M138.333 38.7333H127.267V49.8H138.333V38.7333Z" fill="#367D77"/>
<path d="M138.333 49.8H127.267V60.8667H138.333V49.8Z" fill="#367D77"/>
<path d="M138.333 71.9333V60.8667H127.267V66.4C127.267 67.8675 127.85 69.275 128.887 70.3127C129.925 71.3504 131.332 71.9333 132.8 71.9333" fill="#367D77"/>
<path d="M138.333 83H127.267V94.0667H138.333V83Z" fill="#367D77"/>
<path d="M138.333 94.0667H127.267V105.133H138.333V94.0667Z" fill="#367D77"/>
<path d="M138.333 105.133H127.267V116.2H138.333V105.133Z" fill="#367D77"/>
<path d="M138.333 116.2H127.267V127.267H138.333V116.2Z" fill="#367D77"/>
<path d="M138.333 127.267H127.267V138.333H138.333V127.267Z" fill="#367D77"/>
<path d="M138.333 149.4V138.333H127.267V143.867C127.267 145.334 127.85 146.742 128.887 147.779C129.925 148.817 131.332 149.4 132.8 149.4" fill="#367D77"/>
<path d="M127.267 171.533H138.333V160.467H132.8C131.332 160.467 129.925 161.05 128.887 162.087C127.85 163.125 127.267 164.532 127.267 166" fill="#367D77"/>
<path d="M138.333 171.533H127.267V182.6H138.333V171.533Z" fill="#367D77"/>
<path d="M138.333 182.6H127.267V193.667H132.8C134.268 193.667 135.675 193.084 136.713 192.046C137.75 191.008 138.333 189.601 138.333 188.133" fill="#367D77"/>
<path d="M127.267 215.8H138.333V210.267C138.333 208.799 137.75 207.392 136.713 206.354C135.675 205.316 134.268 204.733 132.8 204.733C131.332 204.733 129.925 205.316 128.887 206.354C127.85 207.392 127.267 208.799 127.267 210.267" fill="#367D77"/>
<path d="M138.333 215.8H127.267V221.333C127.267 222.801 127.85 224.208 128.887 225.246C129.925 226.284 131.332 226.867 132.8 226.867C134.268 226.867 135.675 226.284 136.713 225.246C137.75 224.208 138.333 222.801 138.333 221.333" fill="#367D77"/>
<path d="M138.333 237.933H127.267V249H138.333V237.933Z" fill="#367D77"/>
<path d="M138.333 249H127.267V260.067H138.333V249Z" fill="#367D77"/>
<path d="M138.333 260.067H127.267V271.133H138.333V260.067Z" fill="#367D77"/>
<path d="M138.333 271.133H127.267V282.2H138.333V271.133Z" fill="#367D77"/>
<path d="M138.333 282.2H127.267V287.733C127.267 289.201 127.85 290.608 128.887 291.646C129.925 292.684 131.332 293.267 132.8 293.267C134.268 293.267 135.675 292.684 136.713 291.646C137.75 290.608 138.333 289.201 138.333 287.733" fill="#367D77"/>
<path d="M138.333 315.4V304.333H132.8C131.332 304.333 129.925 304.916 128.887 305.954C127.85 306.992 127.267 308.399 127.267 309.867C127.267 311.334 127.85 312.742 128.887 313.779C129.925 314.817 131.332 315.4 132.8 315.4" fill="#367D77"/>
<path d="M138.333 16.6H149.4V5.53331H143.867C142.399 5.53331 140.992 6.11628 139.954 7.15398C138.916 8.19168 138.333 9.59911 138.333 11.0666" fill="#367D77"/>
<path d="M149.4 16.6H138.333V27.6666H149.4V16.6Z" fill="#367D77"/>
<path d="M149.4 60.8666H138.333V71.9333H149.4V60.8666Z" fill="#367D77"/>
<path d="M149.4 71.9333H138.333V83H149.4V71.9333Z" fill="#367D77"/>
<path d="M149.4 83H138.333V94.0667H143.867C145.334 94.0667 146.742 93.4837 147.779 92.446C148.817 91.4083 149.4 90.0009 149.4 88.5333" fill="#367D77"/>
<path d="M149.4 116.2H138.333V127.267H149.4V116.2Z" fill="#367D77"/>
<path d="M138.333 138.333V149.4H149.4V143.867C149.4 142.399 148.817 140.992 147.779 139.954C146.742 138.916 145.334 138.333 143.867 138.333" fill="#367D77"/>
<path d="M149.4 149.4H138.333V160.467H149.4V149.4Z" fill="#367D77"/>
<path d="M149.4 160.467H138.333V171.533H143.867C145.334 171.533 146.742 170.95 147.779 169.913C148.817 168.875 149.4 167.468 149.4 166" fill="#367D77"/>
<path d="M149.4 204.733V193.667H143.867C142.399 193.667 140.992 194.25 139.954 195.287C138.916 196.325 138.333 197.732 138.333 199.2C138.333 200.668 138.916 202.075 139.954 203.113C140.992 204.15 142.399 204.733 143.867 204.733" fill="#367D77"/>
<path d="M149.4 237.933H138.333V249H149.4V237.933Z" fill="#367D77"/>
<path d="M138.333 260.067V271.133H143.867C145.334 271.133 146.742 270.55 147.779 269.513C148.817 268.475 149.4 267.068 149.4 265.6C149.4 264.132 148.817 262.725 147.779 261.687C146.742 260.65 145.334 260.067 143.867 260.067" fill="#367D77"/>
<path d="M138.333 304.333H149.4V298.8C149.4 297.332 148.817 295.925 147.779 294.887C146.742 293.85 145.334 293.267 143.867 293.267C142.399 293.267 140.992 293.85 139.954 294.887C138.916 295.925 138.333 297.332 138.333 298.8" fill="#367D77"/>
<path d="M149.4 304.333H138.333V315.4H149.4V304.333Z" fill="#367D77"/>
<path d="M149.4 326.467V315.4H138.333V320.933C138.333 322.401 138.916 323.808 139.954 324.846C140.992 325.884 142.399 326.467 143.867 326.467" fill="#367D77"/>
<path d="M160.467 5.53333H149.4V16.6H160.467V5.53333Z" fill="#367D77"/>
<path d="M160.467 16.6H149.4V27.6666H160.467V16.6Z" fill="#367D77"/>
<path d="M160.467 27.6667H149.4V38.7334H160.467V27.6667Z" fill="#367D77"/>
<path d="M160.467 38.7333H149.4V49.8H160.467V38.7333Z" fill="#367D77"/>
<path d="M160.467 49.8H149.4V60.8667H160.467V49.8Z" fill="#367D77"/>
<path d="M160.467 60.8666H149.4V71.9333H154.933C156.401 71.9333 157.808 71.3503 158.846 70.3126C159.884 69.2749 160.467 67.8675 160.467 66.4" fill="#367D77"/>
<path d="M154.933 105.133C157.989 105.133 160.467 102.656 160.467 99.6C160.467 96.544 157.989 94.0667 154.933 94.0667C151.877 94.0667 149.4 96.544 149.4 99.6C149.4 102.656 151.877 105.133 154.933 105.133Z" fill="#367D77"/>
<path d="M160.467 116.2H149.4V127.267H160.467V116.2Z" fill="#367D77"/>
<path d="M160.467 193.667H149.4V204.733H160.467V193.667Z" fill="#367D77"/>
<path d="M160.467 204.733H149.4V215.8H160.467V204.733Z" fill="#367D77"/>
<path d="M160.467 215.8H149.4V226.867H160.467V215.8Z" fill="#367D77"/>
<path d="M160.467 226.867H149.4V237.933H160.467V226.867Z" fill="#367D77"/>
<path d="M160.467 237.933H149.4V249H160.467V237.933Z" fill="#367D77"/>
<path d="M160.467 260.067V249H149.4V254.533C149.4 256.001 149.983 257.408 151.021 258.446C152.058 259.484 153.466 260.067 154.933 260.067" fill="#367D77"/>
<path d="M149.4 282.2H160.467V276.667C160.467 275.199 159.884 273.792 158.846 272.754C157.808 271.716 156.401 271.133 154.933 271.133C153.466 271.133 152.058 271.716 151.021 272.754C149.983 273.792 149.4 275.199 149.4 276.667" fill="#367D77"/>
<path d="M160.467 282.2H149.4V287.733C149.4 289.201 149.983 290.608 151.021 291.646C152.058 292.684 153.466 293.267 154.933 293.267C156.401 293.267 157.808 292.684 158.846 291.646C159.884 290.608 160.467 289.201 160.467 287.733" fill="#367D77"/>
<path d="M149.4 315.4V326.467H154.933C156.401 326.467 157.808 325.884 158.846 324.846C159.884 323.808 160.467 322.401 160.467 320.933C160.467 319.466 159.884 318.058 158.846 317.021C157.808 315.983 156.401 315.4 154.933 315.4" fill="#367D77"/>
<path d="M160.467 5.53333V16.6H171.533V11.0667C171.533 9.59913 170.95 8.1917 169.913 7.154C168.875 6.1163 167.468 5.53333 166 5.53333" fill="#367D77"/>
<path d="M171.533 16.6H160.467V27.6666H171.533V16.6Z" fill="#367D77"/>
<path d="M171.533 27.6667H160.467V38.7334H171.533V27.6667Z" fill="#367D77"/>
<path d="M171.533 38.7333H160.467V49.8H171.533V38.7333Z" fill="#367D77"/>
<path d="M166 83C169.056 83 171.533 80.5227 171.533 77.4667C171.533 74.4107 169.056 71.9333 166 71.9333C162.944 71.9333 160.467 74.4107 160.467 77.4667C160.467 80.5227 162.944 83 166 83Z" fill="#367D77"/>
<path d="M160.467 116.2H171.533V110.667C171.533 109.199 170.95 107.792 169.913 106.754C168.875 105.716 167.468 105.133 166 105.133C164.532 105.133 163.125 105.716 162.087 106.754C161.05 107.792 160.467 109.199 160.467 110.667" fill="#367D77"/>
<path d="M171.533 116.2H160.467V127.267H171.533V116.2Z" fill="#367D77"/>
<path d="M171.533 138.333V127.267H160.467V132.8C160.467 134.268 161.05 135.675 162.087 136.713C163.125 137.75 164.532 138.333 166 138.333" fill="#367D77"/>
<path d="M166 160.467C169.056 160.467 171.533 157.989 171.533 154.933C171.533 151.877 169.056 149.4 166 149.4C162.944 149.4 160.467 151.877 160.467 154.933C160.467 157.989 162.944 160.467 166 160.467Z" fill="#367D77"/>
<path d="M160.467 193.667H171.533V182.6H166C164.532 182.6 163.125 183.183 162.087 184.221C161.05 185.258 160.467 186.666 160.467 188.133" fill="#367D77"/>
<path d="M171.533 193.667H160.467V204.733H171.533V193.667Z" fill="#367D77"/>
<path d="M171.533 226.867H160.467V237.933H171.533V226.867Z" fill="#367D77"/>
<path d="M160.467 249V260.067H171.533V254.533C171.533 253.066 170.95 251.658 169.913 250.621C168.875 249.583 167.468 249 166 249" fill="#367D77"/>
<path d="M171.533 260.067H160.467V265.6C160.467 267.068 161.05 268.475 162.087 269.513C163.125 270.55 164.532 271.133 166 271.133C167.468 271.133 168.875 270.55 169.913 269.513C170.95 268.475 171.533 267.068 171.533 265.6" fill="#367D77"/>
<path d="M171.533 38.7333V49.8H182.6V44.2667C182.6 42.7991 182.017 41.3917 180.979 40.354C179.942 39.3163 178.534 38.7333 177.067 38.7333" fill="#367D77"/>
<path d="M182.6 49.8H171.533V60.8667H182.6V49.8Z" fill="#367D77"/>
<path d="M182.6 71.9333V60.8667H171.533V66.4C171.533 67.8675 172.116 69.275 173.154 70.3127C174.192 71.3504 175.599 71.9333 177.067 71.9333" fill="#367D77"/>
<path d="M182.6 116.2H171.533V127.267H182.6V116.2Z" fill="#367D77"/>
<path d="M182.6 127.267H171.533V138.333H177.067C178.534 138.333 179.942 137.75 180.979 136.713C182.017 135.675 182.6 134.268 182.6 132.8" fill="#367D77"/>
<path d="M182.6 182.6H171.533V193.667H182.6V182.6Z" fill="#367D77"/>
<path d="M182.6 193.667H171.533V204.733H182.6V193.667Z" fill="#367D77"/>
<path d="M182.6 204.733H171.533V215.8H182.6V204.733Z" fill="#367D77"/>
<path d="M182.6 215.8H171.533V226.867H182.6V215.8Z" fill="#367D77"/>
<path d="M182.6 226.867H171.533V237.933H182.6V226.867Z" fill="#367D77"/>
<path d="M182.6 237.933H171.533V243.467C171.533 244.934 172.116 246.342 173.154 247.379C174.192 248.417 175.599 249 177.067 249C178.534 249 179.942 248.417 180.979 247.379C182.017 246.342 182.6 244.934 182.6 243.467" fill="#367D77"/>
<path d="M171.533 282.2H182.6V276.667C182.6 275.199 182.017 273.792 180.979 272.754C179.942 271.716 178.534 271.133 177.067 271.133C175.599 271.133 174.192 271.716 173.154 272.754C172.116 273.792 171.533 275.199 171.533 276.667" fill="#367D77"/>
<path d="M182.6 293.267V282.2H171.533V287.733C171.533 289.201 172.116 290.608 173.154 291.646C174.192 292.684 175.599 293.267 177.067 293.267" fill="#367D77"/>
<path d="M177.067 315.4C180.123 315.4 182.6 312.923 182.6 309.867C182.6 306.811 180.123 304.333 177.067 304.333C174.011 304.333 171.533 306.811 171.533 309.867C171.533 312.923 174.011 315.4 177.067 315.4Z" fill="#367D77"/>
<path d="M182.6 27.6667H193.667V22.1334C193.667 20.6658 193.084 19.2584 192.046 18.2207C191.008 17.183 189.601 16.6 188.133 16.6C186.666 16.6 185.258 17.183 184.221 18.2207C183.183 19.2584 182.6 20.6658 182.6 22.1334" fill="#367D77"/>
<path d="M193.667 38.7333V27.6667H182.6V33.2C182.6 34.6675 183.183 36.075 184.221 37.1127C185.258 38.1504 186.666 38.7333 188.133 38.7333" fill="#367D77"/>
<path d="M193.667 60.8666H182.6V71.9333H193.667V60.8666Z" fill="#367D77"/>
<path d="M193.667 71.9333H182.6V77.4667C182.6 78.9342 183.183 80.3416 184.221 81.3793C185.258 82.417 186.666 83 188.133 83C189.601 83 191.008 82.417 192.046 81.3793C193.084 80.3416 193.667 78.9342 193.667 77.4667" fill="#367D77"/>
<path d="M182.6 105.133H193.667V99.6C193.667 98.1324 193.084 96.725 192.046 95.6873C191.008 94.6496 189.601 94.0666 188.133 94.0666C186.666 94.0666 185.258 94.6496 184.221 95.6873C183.183 96.725 182.6 98.1324 182.6 99.6" fill="#367D77"/>
<path d="M193.667 105.133H182.6V116.2H193.667V105.133Z" fill="#367D77"/>
<path d="M193.667 116.2H182.6V127.267H193.667V116.2Z" fill="#367D77"/>
<path d="M182.6 149.4H193.667V143.867C193.667 142.399 193.084 140.992 192.046 139.954C191.008 138.916 189.601 138.333 188.133 138.333C186.666 138.333 185.258 138.916 184.221 139.954C183.183 140.992 182.6 142.399 182.6 143.867" fill="#367D77"/>
<path d="M193.667 160.467V149.4H182.6V154.933C182.6 156.401 183.183 157.808 184.221 158.846C185.258 159.884 186.666 160.467 188.133 160.467" fill="#367D77"/>
<path d="M182.6 182.6H193.667V171.533H188.133C186.666 171.533 185.258 172.116 184.221 173.154C183.183 174.192 182.6 175.599 182.6 177.067" fill="#367D77"/>
<path d="M193.667 182.6H182.6V193.667H188.133C189.601 193.667 191.008 193.084 192.046 192.046C193.084 191.008 193.667 189.601 193.667 188.133" fill="#367D77"/>
<path d="M182.6 282.2V293.267H193.667V287.733C193.667 286.266 193.084 284.858 192.046 283.821C191.008 282.783 189.601 282.2 188.133 282.2" fill="#367D77"/>
<path d="M193.667 304.333V293.267H182.6V298.8C182.6 300.268 183.183 301.675 184.221 302.713C185.258 303.75 186.666 304.333 188.133 304.333" fill="#367D77"/>
<path d="M204.733 16.6V5.53331H199.2C197.732 5.53331 196.325 6.11628 195.287 7.15398C194.25 8.19169 193.667 9.59911 193.667 11.0666C193.667 12.5342 194.25 13.9416 195.287 14.9793C196.325 16.017 197.732 16.6 199.2 16.6" fill="#367D77"/>
<path d="M204.733 27.6667H193.667V38.7334H204.733V27.6667Z" fill="#367D77"/>
<path d="M193.667 60.8666H204.733V49.8H199.2C197.732 49.8 196.325 50.3829 195.287 51.4206C194.25 52.4583 193.667 53.8658 193.667 55.3333" fill="#367D77"/>
<path d="M204.733 60.8666H193.667V71.9333H204.733V60.8666Z" fill="#367D77"/>
<path d="M199.2 94.0667C202.256 94.0667 204.733 91.5893 204.733 88.5333C204.733 85.4774 202.256 83 199.2 83C196.144 83 193.667 85.4774 193.667 88.5333C193.667 91.5893 196.144 94.0667 199.2 94.0667Z" fill="#367D77"/>
<path d="M193.667 105.133V116.2H204.733V110.667C204.733 109.199 204.15 107.792 203.113 106.754C202.075 105.716 200.668 105.133 199.2 105.133" fill="#367D77"/>
<path d="M204.733 116.2H193.667V127.267H199.2C200.668 127.267 202.075 126.684 203.113 125.646C204.15 124.608 204.733 123.201 204.733 121.733" fill="#367D77"/>
<path d="M204.733 149.4H193.667V160.467H204.733V149.4Z" fill="#367D77"/>
<path d="M204.733 160.467H193.667V171.533H204.733V160.467Z" fill="#367D77"/>
<path d="M204.733 171.533H193.667V182.6H204.733V171.533Z" fill="#367D77"/>
<path d="M193.667 204.733H204.733V193.667H199.2C197.732 193.667 196.325 194.25 195.287 195.287C194.25 196.325 193.667 197.732 193.667 199.2" fill="#367D77"/>
<path d="M204.733 204.733H193.667V215.8H204.733V204.733Z" fill="#367D77"/>
<path d="M204.733 215.8H193.667V226.867H204.733V215.8Z" fill="#367D77"/>
<path d="M204.733 226.867H193.667V237.933H204.733V226.867Z" fill="#367D77"/>
<path d="M204.733 237.933H193.667V249H204.733V237.933Z" fill="#367D77"/>
<path d="M204.733 249H193.667V260.067H204.733V249Z" fill="#367D77"/>
<path d="M204.733 260.067H193.667V271.133H204.733V260.067Z" fill="#367D77"/>
<path d="M204.733 271.133H193.667V276.667C193.667 278.134 194.25 279.542 195.287 280.579C196.325 281.617 197.732 282.2 199.2 282.2C200.668 282.2 202.075 281.617 203.113 280.579C204.15 279.542 204.733 278.134 204.733 276.667" fill="#367D77"/>
<path d="M193.667 293.267V304.333H204.733V298.8C204.733 297.332 204.15 295.925 203.113 294.887C202.075 293.85 200.668 293.267 199.2 293.267" fill="#367D77"/>
<path d="M204.733 304.333H193.667V315.4H204.733V304.333Z" fill="#367D77"/>
<path d="M204.733 315.4H193.667V320.933C193.667 322.401 194.25 323.808 195.287 324.846C196.325 325.884 197.732 326.467 199.2 326.467C200.668 326.467 202.075 325.884 203.113 324.846C204.15 323.808 204.733 322.401 204.733 320.933" fill="#367D77"/>
<path d="M215.8 5.53333H204.733V16.6H215.8V5.53333Z" fill="#367D77"/>
<path d="M215.8 27.6667H204.733V38.7334H215.8V27.6667Z" fill="#367D77"/>
<path d="M215.8 38.7333H204.733V49.8H215.8V38.7333Z" fill="#367D77"/>
<path d="M215.8 49.8H204.733V60.8667H215.8V49.8Z" fill="#367D77"/>
<path d="M215.8 60.8666H204.733V71.9333H215.8V60.8666Z" fill="#367D77"/>
<path d="M215.8 71.9333H204.733V77.4667C204.733 78.9342 205.316 80.3416 206.354 81.3793C207.392 82.417 208.799 83 210.267 83C211.734 83 213.142 82.417 214.179 81.3793C215.217 80.3416 215.8 78.9342 215.8 77.4667" fill="#367D77"/>
<path d="M215.8 138.333V127.267H210.267C208.799 127.267 207.392 127.85 206.354 128.887C205.316 129.925 204.733 131.333 204.733 132.8C204.733 134.268 205.316 135.675 206.354 136.713C207.392 137.75 208.799 138.333 210.267 138.333" fill="#367D77"/>
<path d="M215.8 149.4H204.733V160.467H215.8V149.4Z" fill="#367D77"/>
<path d="M215.8 171.533H204.733V182.6H215.8V171.533Z" fill="#367D77"/>
<path d="M215.8 182.6H204.733V193.667H215.8V182.6Z" fill="#367D77"/>
<path d="M215.8 193.667H204.733V204.733H210.267C211.734 204.733 213.142 204.15 214.179 203.113C215.217 202.075 215.8 200.668 215.8 199.2" fill="#367D77"/>
<path d="M215.8 249H204.733V260.067H215.8V249Z" fill="#367D77"/>
<path d="M215.8 293.267V282.2H210.267C208.799 282.2 207.392 282.783 206.354 283.821C205.316 284.858 204.733 286.266 204.733 287.733C204.733 289.201 205.316 290.608 206.354 291.646C207.392 292.684 208.799 293.267 210.267 293.267" fill="#367D77"/>
<path d="M226.867 5.53333H215.8V16.6H226.867V5.53333Z" fill="#367D77"/>
<path d="M215.8 27.6667V38.7334H226.867V33.2C226.867 31.7325 226.284 30.3251 225.246 29.2874C224.208 28.2497 222.801 27.6667 221.333 27.6667" fill="#367D77"/>
<path d="M226.867 38.7333H215.8V49.8H221.333C222.801 49.8 224.208 49.217 225.246 48.1793C226.284 47.1416 226.867 45.7342 226.867 44.2667" fill="#367D77"/>
<path d="M215.8 60.8666V71.9333H221.333C222.801 71.9333 224.208 71.3503 225.246 70.3126C226.284 69.2749 226.867 67.8675 226.867 66.4C226.867 64.9324 226.284 63.525 225.246 62.4873C224.208 61.4496 222.801 60.8666 221.333 60.8666" fill="#367D77"/>
<path d="M221.333 94.0667C224.389 94.0667 226.867 91.5893 226.867 88.5333C226.867 85.4774 224.389 83 221.333 83C218.277 83 215.8 85.4774 215.8 88.5333C215.8 91.5893 218.277 94.0667 221.333 94.0667Z" fill="#367D77"/>
<path d="M215.8 127.267H226.867V121.733C226.867 120.266 226.284 118.858 225.246 117.821C224.208 116.783 222.801 116.2 221.333 116.2C219.866 116.2 218.458 116.783 217.421 117.821C216.383 118.858 215.8 120.266 215.8 121.733" fill="#367D77"/>
<path d="M226.867 127.267H215.8V138.333H226.867V127.267Z" fill="#367D77"/>
<path d="M226.867 138.333H215.8V149.4H226.867V138.333Z" fill="#367D77"/>
<path d="M226.867 149.4H215.8V160.467H221.333C222.801 160.467 224.208 159.884 225.246 158.846C226.284 157.808 226.867 156.401 226.867 154.933" fill="#367D77"/>
<path d="M226.867 171.533H215.8V182.6H226.867V171.533Z" fill="#367D77"/>
<path d="M215.8 215.8H226.867V210.267C226.867 208.799 226.284 207.392 225.246 206.354C224.208 205.316 222.801 204.733 221.333 204.733C219.866 204.733 218.458 205.316 217.421 206.354C216.383 207.392 215.8 208.799 215.8 210.267" fill="#367D77"/>
<path d="M226.867 215.8H215.8V226.867H226.867V215.8Z" fill="#367D77"/>
<path d="M226.867 237.933V226.867H215.8V232.4C215.8 233.868 216.383 235.275 217.421 236.313C218.458 237.35 219.866 237.933 221.333 237.933" fill="#367D77"/>
<path d="M226.867 249H215.8V260.067H226.867V249Z" fill="#367D77"/>
<path d="M226.867 271.133V260.067H215.8V265.6C215.8 267.067 216.383 268.475 217.421 269.513C218.458 270.55 219.866 271.133 221.333 271.133" fill="#367D77"/>
<path d="M215.8 282.2V293.267H221.333C222.801 293.267 224.208 292.684 225.246 291.646C226.284 290.608 226.867 289.201 226.867 287.733C226.867 286.266 226.284 284.858 225.246 283.821C224.208 282.783 222.801 282.2 221.333 282.2" fill="#367D77"/>
<path d="M221.333 315.4C224.389 315.4 226.867 312.923 226.867 309.867C226.867 306.811 224.389 304.333 221.333 304.333C218.277 304.333 215.8 306.811 215.8 309.867C215.8 312.923 218.277 315.4 221.333 315.4Z" fill="#367D77"/>
<path d="M226.867 5.53333V16.6H232.4C233.868 16.6 235.275 16.017 236.313 14.9793C237.35 13.9416 237.933 12.5342 237.933 11.0667C237.933 9.59913 237.35 8.1917 236.313 7.154C235.275 6.1163 233.868 5.53333 232.4 5.53333" fill="#367D77"/>
<path d="M232.4 83C235.456 83 237.933 80.5227 237.933 77.4667C237.933 74.4107 235.456 71.9333 232.4 71.9333C229.344 71.9333 226.867 74.4107 226.867 77.4667C226.867 80.5227 229.344 83 232.4 83Z" fill="#367D77"/>
<path d="M232.4 116.2C235.456 116.2 237.933 113.723 237.933 110.667C237.933 107.611 235.456 105.133 232.4 105.133C229.344 105.133 226.867 107.611 226.867 110.667C226.867 113.723 229.344 116.2 232.4 116.2Z" fill="#367D77"/>
<path d="M226.867 171.533V182.6H237.933V177.067C237.933 175.599 237.35 174.192 236.313 173.154C235.275 172.116 233.868 171.533 232.4 171.533" fill="#367D77"/>
<path d="M237.933 182.6H226.867V193.667H237.933V182.6Z" fill="#367D77"/>
<path d="M237.933 193.667H226.867V199.2C226.867 200.668 227.45 202.075 228.487 203.113C229.525 204.15 230.932 204.733 232.4 204.733C233.868 204.733 235.275 204.15 236.313 203.113C237.35 202.075 237.933 200.668 237.933 199.2" fill="#367D77"/>
<path d="M226.867 215.8V226.867H237.933V221.333C237.933 219.866 237.35 218.458 236.313 217.421C235.275 216.383 233.868 215.8 232.4 215.8" fill="#367D77"/>
<path d="M237.933 226.867H226.867V237.933H237.933V226.867Z" fill="#367D77"/>
<path d="M237.933 237.933H226.867V249H237.933V237.933Z" fill="#367D77"/>
<path d="M237.933 249H226.867V260.067H237.933V249Z" fill="#367D77"/>
<path d="M237.933 260.067H226.867V271.133H237.933V260.067Z" fill="#367D77"/>
<path d="M237.933 282.2V271.133H226.867V276.667C226.867 278.134 227.45 279.542 228.487 280.579C229.525 281.617 230.932 282.2 232.4 282.2" fill="#367D77"/>
<path d="M232.4 304.333C235.456 304.333 237.933 301.856 237.933 298.8C237.933 295.744 235.456 293.267 232.4 293.267C229.344 293.267 226.867 295.744 226.867 298.8C226.867 301.856 229.344 304.333 232.4 304.333Z" fill="#367D77"/>
<path d="M237.933 326.467V315.4H232.4C230.932 315.4 229.525 315.983 228.487 317.021C227.45 318.058 226.867 319.466 226.867 320.933C226.867 322.401 227.45 323.808 228.487 324.846C229.525 325.884 230.932 326.467 232.4 326.467" fill="#367D77"/>
<path d="M249 105.133V94.0666H243.467C241.999 94.0666 240.592 94.6496 239.554 95.6873C238.516 96.725 237.933 98.1324 237.933 99.6C237.933 101.067 238.516 102.475 239.554 103.513C240.592 104.55 241.999 105.133 243.467 105.133" fill="#367D77"/>
<path d="M237.933 127.267H249V116.2H243.467C241.999 116.2 240.592 116.783 239.554 117.821C238.516 118.858 237.933 120.266 237.933 121.733" fill="#367D77"/>
<path d="M249 127.267H237.933V138.333H249V127.267Z" fill="#367D77"/>
<path d="M249 138.333H237.933V143.867C237.933 145.334 238.516 146.742 239.554 147.779C240.592 148.817 241.999 149.4 243.467 149.4C244.934 149.4 246.342 148.817 247.379 147.779C248.417 146.742 249 145.334 249 143.867" fill="#367D77"/>
<path d="M249 171.533V160.467H243.467C241.999 160.467 240.592 161.05 239.554 162.087C238.516 163.125 237.933 164.532 237.933 166C237.933 167.468 238.516 168.875 239.554 169.913C240.592 170.95 241.999 171.533 243.467 171.533" fill="#367D77"/>
<path d="M249 182.6H237.933V193.667H249V182.6Z" fill="#367D77"/>
<path d="M249 215.8V204.733H243.467C241.999 204.733 240.592 205.316 239.554 206.354C238.516 207.392 237.933 208.799 237.933 210.267C237.933 211.734 238.516 213.142 239.554 214.179C240.592 215.217 241.999 215.8 243.467 215.8" fill="#367D77"/>
<path d="M249 226.867H237.933V237.933H249V226.867Z" fill="#367D77"/>
<path d="M249 271.133H237.933V282.2H249V271.133Z" fill="#367D77"/>
<path d="M249 282.2H237.933V287.733C237.933 289.201 238.516 290.608 239.554 291.646C240.592 292.684 241.999 293.267 243.467 293.267C244.934 293.267 246.342 292.684 247.379 291.646C248.417 290.608 249 289.201 249 287.733" fill="#367D77"/>
<path d="M237.933 315.4V326.467H243.467C244.934 326.467 246.342 325.884 247.379 324.846C248.417 323.808 249 322.401 249 320.933C249 319.466 248.417 318.058 247.379 317.021C246.342 315.983 244.934 315.4 243.467 315.4" fill="#367D77"/>
<path d="M260.067 94.0667H249V105.133H260.067V94.0667Z" fill="#367D77"/>
<path d="M260.067 116.2H249V127.267H260.067V116.2Z" fill="#367D77"/>
<path d="M260.067 127.267H249V138.333H254.533C256.001 138.333 257.408 137.75 258.446 136.713C259.484 135.675 260.067 134.268 260.067 132.8" fill="#367D77"/>
<path d="M260.067 160.467H249V171.533H260.067V160.467Z" fill="#367D77"/>
<path d="M260.067 171.533H249V182.6H260.067V171.533Z" fill="#367D77"/>
<path d="M260.067 182.6H249V193.667H254.533C256.001 193.667 257.408 193.084 258.446 192.046C259.484 191.008 260.067 189.601 260.067 188.133" fill="#367D77"/>
<path d="M249 204.733V215.8H260.067V210.267C260.067 208.799 259.484 207.392 258.446 206.354C257.408 205.316 256.001 204.733 254.533 204.733" fill="#367D77"/>
<path d="M260.067 215.8H249V226.867H260.067V215.8Z" fill="#367D77"/>
<path d="M260.067 226.867H249V237.933H260.067V226.867Z" fill="#367D77"/>
<path d="M254.533 260.067C257.589 260.067 260.067 257.589 260.067 254.533C260.067 251.477 257.589 249 254.533 249C251.477 249 249 251.477 249 254.533C249 257.589 251.477 260.067 254.533 260.067Z" fill="#367D77"/>
<path d="M260.067 271.133H249V282.2H260.067V271.133Z" fill="#367D77"/>
<path d="M271.133 94.0667H260.067V105.133H271.133V94.0667Z" fill="#367D77"/>
<path d="M260.067 116.2V127.267H265.6C267.068 127.267 268.475 126.684 269.513 125.646C270.55 124.608 271.133 123.201 271.133 121.733C271.133 120.266 270.55 118.858 269.513 117.821C268.475 116.783 267.068 116.2 265.6 116.2" fill="#367D77"/>
<path d="M260.067 160.467V171.533H265.6C267.068 171.533 268.475 170.95 269.513 169.913C270.55 168.875 271.133 167.468 271.133 166C271.133 164.532 270.55 163.125 269.513 162.087C268.475 161.05 267.068 160.467 265.6 160.467" fill="#367D77"/>
<path d="M260.067 215.8V226.867H271.133V221.333C271.133 219.866 270.55 218.458 269.513 217.421C268.475 216.383 267.068 215.8 265.6 215.8" fill="#367D77"/>
<path d="M271.133 226.867H260.067V237.933H271.133V226.867Z" fill="#367D77"/>
<path d="M271.133 271.133H260.067V282.2H271.133V271.133Z" fill="#367D77"/>
<path d="M271.133 293.267V282.2H260.067V287.733C260.067 289.201 260.65 290.608 261.687 291.646C262.725 292.684 264.132 293.267 265.6 293.267" fill="#367D77"/>
<path d="M265.6 326.467C268.656 326.467 271.133 323.989 271.133 320.933C271.133 317.877 268.656 315.4 265.6 315.4C262.544 315.4 260.067 317.877 260.067 320.933C260.067 323.989 262.544 326.467 265.6 326.467Z" fill="#367D77"/>
<path d="M282.2 94.0667H271.133V105.133H282.2V94.0667Z" fill="#367D77"/>
<path d="M282.2 105.133H271.133V110.667C271.133 112.134 271.716 113.542 272.754 114.579C273.792 115.617 275.199 116.2 276.667 116.2C278.134 116.2 279.542 115.617 280.579 114.579C281.617 113.542 282.2 112.134 282.2 110.667" fill="#367D77"/>
<path d="M276.667 160.467C279.723 160.467 282.2 157.989 282.2 154.933C282.2 151.877 279.723 149.4 276.667 149.4C273.611 149.4 271.133 151.877 271.133 154.933C271.133 157.989 273.611 160.467 276.667 160.467Z" fill="#367D77"/>
<path d="M282.2 182.6V171.533H276.667C275.199 171.533 273.792 172.116 272.754 173.154C271.716 174.192 271.133 175.599 271.133 177.067C271.133 178.534 271.716 179.942 272.754 180.979C273.792 182.017 275.199 182.6 276.667 182.6" fill="#367D77"/>
<path d="M276.667 215.8C279.723 215.8 282.2 213.323 282.2 210.267C282.2 207.211 279.723 204.733 276.667 204.733C273.611 204.733 271.133 207.211 271.133 210.267C271.133 213.323 273.611 215.8 276.667 215.8Z" fill="#367D77"/>
<path d="M282.2 226.867H271.133V237.933H282.2V226.867Z" fill="#367D77"/>
<path d="M282.2 237.933H271.133V249H282.2V237.933Z" fill="#367D77"/>
<path d="M282.2 249H271.133V260.067H282.2V249Z" fill="#367D77"/>
<path d="M282.2 260.067H271.133V271.133H282.2V260.067Z" fill="#367D77"/>
<path d="M282.2 271.133H271.133V282.2H282.2V271.133Z" fill="#367D77"/>
<path d="M282.2 282.2H271.133V293.267H282.2V282.2Z" fill="#367D77"/>
<path d="M282.2 293.267H271.133V304.333H282.2V293.267Z" fill="#367D77"/>
<path d="M282.2 304.333H271.133V309.867C271.133 311.334 271.716 312.742 272.754 313.779C273.792 314.817 275.199 315.4 276.667 315.4C278.134 315.4 279.542 314.817 280.579 313.779C281.617 312.742 282.2 311.334 282.2 309.867" fill="#367D77"/>
<path d="M293.267 94.0667H282.2V105.133H293.267V94.0667Z" fill="#367D77"/>
<path d="M282.2 171.533V182.6H293.267V177.067C293.267 175.599 292.684 174.192 291.646 173.154C290.608 172.116 289.201 171.533 287.733 171.533" fill="#367D77"/>
<path d="M293.267 182.6H282.2V188.133C282.2 189.601 282.783 191.008 283.821 192.046C284.858 193.084 286.266 193.667 287.733 193.667C289.201 193.667 290.608 193.084 291.646 192.046C292.684 191.008 293.267 189.601 293.267 188.133" fill="#367D77"/>
<path d="M282.2 226.867H293.267V215.8H287.733C286.266 215.8 284.858 216.383 283.821 217.421C282.783 218.458 282.2 219.866 282.2 221.333" fill="#367D77"/>
<path d="M293.267 226.867H282.2V237.933H293.267V226.867Z" fill="#367D77"/>
<path d="M293.267 237.933H282.2V249H293.267V237.933Z" fill="#367D77"/>
<path d="M293.267 260.067H282.2V271.133H293.267V260.067Z" fill="#367D77"/>
<path d="M304.333 94.0667H293.267V105.133H304.333V94.0667Z" fill="#367D77"/>
<path d="M304.333 105.133H293.267V116.2H304.333V105.133Z" fill="#367D77"/>
<path d="M304.333 127.267V116.2H293.267V121.733C293.267 123.201 293.85 124.608 294.887 125.646C295.925 126.684 297.332 127.267 298.8 127.267" fill="#367D77"/>
<path d="M304.333 149.4V138.333H298.8C297.332 138.333 295.925 138.916 294.887 139.954C293.85 140.992 293.267 142.399 293.267 143.867C293.267 145.334 293.85 146.742 294.887 147.779C295.925 148.817 297.332 149.4 298.8 149.4" fill="#367D77"/>
<path d="M293.267 215.8V226.867H304.333V221.333C304.333 219.866 303.75 218.458 302.713 217.421C301.675 216.383 300.268 215.8 298.8 215.8" fill="#367D77"/>
<path d="M304.333 226.867H293.267V237.933H304.333V226.867Z" fill="#367D77"/>
<path d="M304.333 237.933H293.267V249H304.333V237.933Z" fill="#367D77"/>
<path d="M304.333 249H293.267V260.067H304.333V249Z" fill="#367D77"/>
<path d="M304.333 260.067H293.267V271.133H304.333V260.067Z" fill="#367D77"/>
<path d="M304.333 271.133H293.267V282.2H304.333V271.133Z" fill="#367D77"/>
<path d="M304.333 293.267V282.2H293.267V287.733C293.267 289.201 293.85 290.608 294.887 291.646C295.925 292.684 297.332 293.267 298.8 293.267" fill="#367D77"/>
<path d="M304.333 315.4V304.333H298.8C297.332 304.333 295.925 304.916 294.887 305.954C293.85 306.992 293.267 308.399 293.267 309.867C293.267 311.334 293.85 312.742 294.887 313.779C295.925 314.817 297.332 315.4 298.8 315.4" fill="#367D77"/>
<path d="M304.333 94.0667V105.133H309.867C311.334 105.133 312.742 104.55 313.779 103.513C314.817 102.475 315.4 101.068 315.4 99.6C315.4 98.1325 314.817 96.725 313.779 95.6873C312.742 94.6496 311.334 94.0667 309.867 94.0667" fill="#367D77"/>
<path d="M304.333 116.2V127.267H309.867C311.334 127.267 312.742 126.684 313.779 125.646C314.817 124.608 315.4 123.201 315.4 121.733C315.4 120.266 314.817 118.858 313.779 117.821C312.742 116.783 311.334 116.2 309.867 116.2" fill="#367D77"/>
<path d="M315.4 138.333H304.333V149.4H315.4V138.333Z" fill="#367D77"/>
<path d="M315.4 149.4H304.333V160.467H315.4V149.4Z" fill="#367D77"/>
<path d="M315.4 171.533V160.467H304.333V166C304.333 167.468 304.916 168.875 305.954 169.913C306.992 170.95 308.399 171.533 309.867 171.533" fill="#367D77"/>
<path d="M315.4 193.667V182.6H309.867C308.399 182.6 306.992 183.183 305.954 184.221C304.916 185.258 304.333 186.666 304.333 188.133C304.333 189.601 304.916 191.008 305.954 192.046C306.992 193.084 308.399 193.667 309.867 193.667" fill="#367D77"/>
<path d="M304.333 226.867V237.933H309.867C311.334 237.933 312.742 237.35 313.779 236.313C314.817 235.275 315.4 233.868 315.4 232.4C315.4 230.933 314.817 229.525 313.779 228.487C312.742 227.45 311.334 226.867 309.867 226.867" fill="#367D77"/>
<path d="M315.4 271.133H304.333V282.2H315.4V271.133Z" fill="#367D77"/>
<path d="M315.4 282.2H304.333V293.267H309.867C311.334 293.267 312.742 292.684 313.779 291.646C314.817 290.608 315.4 289.201 315.4 287.733" fill="#367D77"/>
<path d="M304.333 304.333V315.4H309.867C311.334 315.4 312.742 314.817 313.779 313.779C314.817 312.742 315.4 311.334 315.4 309.867C315.4 308.399 314.817 306.992 313.779 305.954C312.742 304.916 311.334 304.333 309.867 304.333" fill="#367D77"/>
<path d="M315.4 138.333V149.4H320.933C322.401 149.4 323.808 148.817 324.846 147.779C325.884 146.742 326.467 145.334 326.467 143.867C326.467 142.399 325.884 140.992 324.846 139.954C323.808 138.916 322.401 138.333 320.933 138.333" fill="#367D77"/>
<path d="M315.4 160.467V171.533H320.933C322.401 171.533 323.808 170.95 324.846 169.913C325.884 168.875 326.467 167.468 326.467 166C326.467 164.532 325.884 163.125 324.846 162.087C323.808 161.05 322.401 160.467 320.933 160.467" fill="#367D77"/>
<path d="M315.4 182.6V193.667H326.467V188.133C326.467 186.666 325.884 185.258 324.846 184.221C323.808 183.183 322.401 182.6 320.933 182.6" fill="#367D77"/>
<path d="M326.467 193.667H315.4V199.2C315.4 200.668 315.983 202.075 317.021 203.113C318.058 204.15 319.466 204.733 320.933 204.733C322.401 204.733 323.808 204.15 324.846 203.113C325.884 202.075 326.467 200.668 326.467 199.2" fill="#367D77"/>
<path d="M315.4 271.133V282.2H320.933C322.401 282.2 323.808 281.617 324.846 280.579C325.884 279.542 326.467 278.134 326.467 276.667C326.467 275.199 325.884 273.792 324.846 272.754C323.808 271.716 322.401 271.133 320.933 271.133" fill="#367D77"/>
<path d="M320.933 304.333C323.989 304.333 326.467 301.856 326.467 298.8C326.467 295.744 323.989 293.267 320.933 293.267C317.877 293.267 315.4 295.744 315.4 298.8C315.4 301.856 317.877 304.333 320.933 304.333Z" fill="#367D77"/>
<path fill-rule="evenodd" clip-rule="evenodd" d="M5.53333 33.2V55.3333C5.53333 62.671 8.4482 69.7081 13.6367 74.8966C18.8252 80.0851 25.8623 83 33.2 83H55.3333C62.671 83 69.7081 80.0851 74.8966 74.8966C80.0851 69.7081 83 62.671 83 55.3333V33.2C83 25.8623 80.0851 18.8252 74.8966 13.6367C69.7081 8.4482 62.671 5.53333 55.3333 5.53333H33.2C25.8623 5.53333 18.8252 8.4482 13.6367 13.6367C8.4482 18.8252 5.53333 25.8623 5.53333 33.2ZM33.2 16.6H55.3333C59.7359 16.6 63.9582 18.3489 67.0713 21.462C70.1844 24.5751 71.9333 28.7974 71.9333 33.2V55.3333C71.9333 59.7359 70.1844 63.9582 67.0713 67.0713C63.9582 70.1844 59.7359 71.9333 55.3333 71.9333H33.2C28.7974 71.9333 24.5751 70.1844 21.462 67.0713C18.3489 63.9582 16.6 59.7359 16.6 55.3333V33.2C16.6 28.7974 18.3489 24.5751 21.462 21.462C24.5751 18.3489 28.7974 16.6 33.2 16.6Z" fill="#367D77"/>
<path d="M27.6667 38.7333H38.7333V27.6667H33.2C31.7325 27.6667 30.325 28.2496 29.2873 29.2873C28.2496 30.325 27.6667 31.7325 27.6667 33.2" fill="#367D77"/>
<path d="M38.7333 38.7333H27.6667V49.8H38.7333V38.7333Z" fill="#367D77"/>
<path d="M38.7333 60.8666V49.8H27.6667V55.3333C27.6667 56.8008 28.2496 58.2083 29.2873 59.246C30.325 60.2837 31.7325 60.8666 33.2 60.8666" fill="#367D77"/>
<path d="M49.8 27.6667H38.7333V38.7334H49.8V27.6667Z" fill="#367D77"/>
<path d="M49.8 38.7333H38.7333V49.8H49.8V38.7333Z" fill="#367D77"/>
<path d="M49.8 49.8H38.7333V60.8667H49.8V49.8Z" fill="#367D77"/>
<path d="M49.8 27.6667V38.7334H60.8667V33.2C60.8667 31.7325 60.2837 30.3251 59.246 29.2874C58.2083 28.2497 56.8009 27.6667 55.3333 27.6667" fill="#367D77"/>
<path d="M60.8667 38.7333H49.8V49.8H60.8667V38.7333Z" fill="#367D77"/>
<path d="M60.8667 49.8H49.8V60.8667H55.3333C56.8009 60.8667 58.2083 60.2837 59.246 59.246C60.2837 58.2083 60.8667 56.8009 60.8667 55.3333" fill="#367D77"/>
<path fill-rule="evenodd" clip-rule="evenodd" d="M298.8 5.53333L276.667 5.53333C269.329 5.53333 262.292 8.44819 257.103 13.6367C251.915 18.8252 249 25.8623 249 33.2V55.3333C249 62.671 251.915 69.7081 257.103 74.8966C262.292 80.0851 269.329 83 276.667 83H298.8C306.138 83 313.175 80.0851 318.363 74.8966C323.552 69.7081 326.467 62.671 326.467 55.3333V33.2C326.467 25.8623 323.552 18.8252 318.363 13.6367C313.175 8.44819 306.138 5.53333 298.8 5.53333ZM315.4 33.2V55.3333C315.4 59.7359 313.651 63.9582 310.538 67.0713C307.425 70.1844 303.203 71.9333 298.8 71.9333H276.667C272.264 71.9333 268.042 70.1844 264.929 67.0713C261.816 63.9582 260.067 59.7359 260.067 55.3333V33.2C260.067 28.7974 261.816 24.5751 264.929 21.462C268.042 18.3489 272.264 16.6 276.667 16.6L298.8 16.6C303.203 16.6 307.425 18.3489 310.538 21.462C313.651 24.5751 315.4 28.7974 315.4 33.2Z" fill="#367D77"/>
<path d="M271.133 38.7333H282.2V27.6667H276.667C275.199 27.6667 273.792 28.2496 272.754 29.2873C271.716 30.325 271.133 31.7325 271.133 33.2" fill="#367D77"/>
<path d="M282.2 38.7333H271.133V49.8H282.2V38.7333Z" fill="#367D77"/>
<path d="M282.2 60.8666V49.8H271.133V55.3333C271.133 56.8008 271.716 58.2083 272.754 59.246C273.792 60.2837 275.199 60.8666 276.667 60.8666" fill="#367D77"/>
<path d="M293.267 27.6667H282.2V38.7334H293.267V27.6667Z" fill="#367D77"/>
<path d="M293.267 38.7333H282.2V49.8H293.267V38.7333Z" fill="#367D77"/>
<path d="M293.267 49.8H282.2V60.8667H293.267V49.8Z" fill="#367D77"/>
<path d="M293.267 27.6667V38.7334H304.333V33.2C304.333 31.7325 303.75 30.3251 302.713 29.2874C301.675 28.2497 300.268 27.6667 298.8 27.6667" fill="#367D77"/>
<path d="M304.333 38.7333H293.267V49.8H304.333V38.7333Z" fill="#367D77"/>
<path d="M304.333 49.8H293.267V60.8667H298.8C300.268 60.8667 301.675 60.2837 302.713 59.246C303.75 58.2083 304.333 56.8009 304.333 55.3333" fill="#367D77"/>
<path fill-rule="evenodd" clip-rule="evenodd" d="M33.2 326.467H55.3333C62.671 326.467 69.7081 323.552 74.8966 318.363C80.0851 313.175 83 306.138 83 298.8V276.667C83 269.329 80.0851 262.292 74.8966 257.103C69.7081 251.915 62.671 249 55.3333 249H33.2C25.8623 249 18.8252 251.915 13.6367 257.103C8.44819 262.292 5.53333 269.329 5.53333 276.667L5.53333 298.8C5.53333 306.138 8.44819 313.175 13.6367 318.363C18.8252 323.552 25.8623 326.467 33.2 326.467ZM16.6 298.8L16.6 276.667C16.6 272.264 18.3489 268.042 21.462 264.929C24.5751 261.816 28.7974 260.067 33.2 260.067H55.3333C59.7359 260.067 63.9582 261.816 67.0713 264.929C70.1844 268.042 71.9333 272.264 71.9333 276.667V298.8C71.9333 303.203 70.1844 307.425 67.0713 310.538C63.9582 313.651 59.7359 315.4 55.3333 315.4H33.2C28.7974 315.4 24.5751 313.651 21.462 310.538C18.3489 307.425 16.6 303.203 16.6 298.8Z" fill="#367D77"/>
<path d="M27.6667 282.2H38.7333V271.133H33.2C31.7325 271.133 30.325 271.716 29.2873 272.754C28.2496 273.792 27.6667 275.199 27.6667 276.667" fill="#367D77"/>
<path d="M38.7333 282.2H27.6667V293.267H38.7333V282.2Z" fill="#367D77"/>
<path d="M38.7333 304.333V293.267H27.6667V298.8C27.6667 300.268 28.2496 301.675 29.2873 302.713C30.325 303.75 31.7325 304.333 33.2 304.333" fill="#367D77"/>
<path d="M49.8 271.133H38.7333V282.2H49.8V271.133Z" fill="#367D77"/>
<path d="M49.8 282.2H38.7333V293.267H49.8V282.2Z" fill="#367D77"/>
<path d="M49.8 293.267H38.7333V304.333H49.8V293.267Z" fill="#367D77"/>
<path d="M49.8 271.133V282.2H60.8667V276.667C60.8667 275.199 60.2837 273.792 59.246 272.754C58.2083 271.716 56.8009 271.133 55.3333 271.133" fill="#367D77"/>
<path d="M60.8667 282.2H49.8V293.267H60.8667V282.2Z" fill="#367D77"/>
<path d="M60.8667 293.267H49.8V304.333H55.3333C56.8009 304.333 58.2083 303.75 59.246 302.713C60.2837 301.675 60.8667 300.268 60.8667 298.8" fill="#367D77"/>
</g>
<defs>
<clipPath id="clip0_25_107">
<rect width="332" height="332" fill="white"/>
</clipPath>
</defs>
</svg>
